<svg xmlns="http://www.w3.org/2000/svg" width="24" height="24" viewBox="0 0 24 24">
  <g id="cash_inactive" transform="translate(-903 -3466)">
    <rect id="Rectangle_273" data-name="Rectangle 273" width="24" height="23.99" transform="translate(903 3466)" fill="none"/>
    <path id="Path_16697" data-name="Path 16697" d="M23.561,8.72a14.311,14.311,0,0,0-1.612-3.449A11.511,11.511,0,0,0,14.024.195a12,12,0,0,0-6.04,23.142,12.106,12.106,0,0,0,1.522.43c.5.107,1.014.165,1.524.233H13a12.343,12.343,0,0,0,2.2-.4,11.88,11.88,0,0,0,8.629-9.418c.083-.387.116-.785.172-1.178V11.034a12.419,12.419,0,0,0-.439-2.315M12,22.364A10.358,10.358,0,1,1,22.363,12.018,10.39,10.39,0,0,1,12,22.364" transform="translate(903 3466)" fill="#7c7c7c"/>
    <path id="Path_16698" data-name="Path 16698" d="M130.222,101.3c-.237.028-.331.119-.309.357a3.614,3.614,0,0,1,0,.514.814.814,0,0,1-1.624-.012c-.008-.194-.009-.389,0-.585,0-.17-.071-.237-.239-.235-.429,0-.858.011-1.286,0a.831.831,0,0,1-.856-1.023.82.82,0,0,1,.846-.632q1.51-.005,3.019,0a1.111,1.111,0,0,0,.392-.052.8.8,0,0,0,.512-.766.767.767,0,0,0-.595-.7,1.834,1.834,0,0,0-.371-.038c-.484,0-.967,0-1.451,0a2.374,2.374,0,0,1-2.283-1.766,2.74,2.74,0,0,1-.1-.606,2.417,2.417,0,0,1,2.115-2.435c.228-.027.315-.119.3-.343a4.274,4.274,0,0,1,0-.491.813.813,0,0,1,1.622-.061c0,.024,0,.047.006.071.006.179.009.359,0,.538s.07.251.249.248c.382-.006.764,0,1.147,0a1.88,1.88,0,0,1,.348.032.819.819,0,0,1-.128,1.622c-.538.013-1.076,0-1.614,0v0c-.507,0-1.014,0-1.522,0a.779.779,0,1,0-.031,1.549c.523.015,1.046,0,1.568.007a2.414,2.414,0,0,1,.29,4.807" transform="translate(785.914 3380.705)" fill="#7c7c7c"/>
  </g>
</svg>
