<svg xmlns="http://www.w3.org/2000/svg" width="24" height="24" viewBox="0 0 24 24">
  <g id="mydelivery_active" transform="translate(-903 -3466)">
    <rect id="Rectangle_273" data-name="Rectangle 273" width="24" height="24" transform="translate(903 3466)" fill="none"/>
    <path id="Path_16710" data-name="Path 16710" d="M109.4,122.691a1.846,1.846,0,0,1-.077.436,3.5,3.5,0,0,1-3.524,2.715,3.375,3.375,0,0,1-3.309-2.535.312.312,0,0,0-.366-.279q-3.288.013-6.575,0a.358.358,0,0,0-.421.3,3.548,3.548,0,0,1-3.495,2.515,3.4,3.4,0,0,1-.559-.063A12.92,12.92,0,0,1,91,124.4c0-.051,0-.1,0-.154,0-.41.029-.815.071-1.215a12.762,12.762,0,0,1,1.995-5.616,12.85,12.85,0,0,1,6.942-5.264h0a12.828,12.828,0,0,1,3.817-.577c.38,0,.757.017,1.129.049a.883.883,0,0,1-.12.086.9.9,0,0,1-.546.088c-.2-.013-.22.062-.167.234q.585,1.9,1.155,3.8a.333.333,0,0,0,.285.261,4.469,4.469,0,0,1,1.286.485,4.835,4.835,0,0,1,2.516,3.657,16.656,16.656,0,0,1,.036,2.453" transform="translate(817.571 3362.704)" fill="#f0bb62"/>
    <path id="Path_16711" data-name="Path 16711" d="M23.936,15.495a4.835,4.835,0,0,0-2.516-3.657,4.469,4.469,0,0,0-1.286-.485.333.333,0,0,1-.285-.261q-.568-1.9-1.155-3.8c-.053-.172-.031-.247.167-.234a.9.9,0,0,0,.546-.088.883.883,0,0,0,.12-.086.664.664,0,0,0,.242-.528c0-.944.006-1.888,0-2.832a.689.689,0,0,0-.713-.708c-.5-.006-1-.01-1.5,0a2.115,2.115,0,0,0-2.029,2.03c-.006.187-.01.375,0,.561.009.164-.057.217-.218.216q-.948-.009-1.9,0a.7.7,0,0,0-.689.587.725.725,0,0,0,.482.814.891.891,0,0,0,.3.034c.367,0,.733,0,1.1,0,.134,0,.176.036.093.16q-.064.1-.119.193h0a4.056,4.056,0,0,0-.466,2.1c.018,2.348,0,4.7.012,7.044,0,.232-.055.31-.3.306-.9-.014-1.81-.011-2.714,0a.458.458,0,0,1-.423-.225,3.22,3.22,0,0,1,.166-3.932,1.44,1.44,0,0,0,.4-1.119c-.027-.334,0-.67-.006-1.006a2.124,2.124,0,0,0-.4-1.287,2.285,2.285,0,0,0-.9-.7c-.171-.078-.228-.158-.16-.335a1.443,1.443,0,0,0,.062-.532c0-1.856,0-3.713,0-5.569A2.1,2.1,0,0,0,7.679,0Q4.929,0,2.18,0A2.094,2.094,0,0,0,.071,1.531C.051,1.59.024,1.646,0,1.7v6.46c.021.05.048.1.064.15A2.078,2.078,0,0,0,2.016,9.859c.173.014.156.091.127.215A2.026,2.026,0,0,0,2.4,11.646c.1.159.081.231-.072.328A4.434,4.434,0,0,0,.989,13.358,8.329,8.329,0,0,0,0,15.794v.8a2.253,2.253,0,0,0,1.329,1.562,3.037,3.037,0,0,0,1.269.135.275.275,0,0,1,.326.237,3.567,3.567,0,0,0,2.721,2.518A3.4,3.4,0,0,0,6.2,21.1,3.548,3.548,0,0,0,9.7,18.59a.358.358,0,0,1,.421-.3q3.288.015,6.575,0a.312.312,0,0,1,.366.279A3.375,3.375,0,0,0,20.371,21.1,3.5,3.5,0,0,0,23.9,18.384a1.846,1.846,0,0,0,.077-.436,16.651,16.651,0,0,0-.036-2.453M1.422,2.376c0-.7.241-.937.947-.937H7.305c.933,0,1.105.18,1.111,1.105,0,.225-.078.272-.285.271-1.068-.009-2.137,0-3.205,0-1.022,0-2.044,0-3.065,0-.493,0-.438.059-.439-.434m.857,6.05c-.59,0-.855-.268-.857-.861,0-1.014,0-2.028,0-3.042,0-.212.056-.282.276-.28,1.068.011,2.137,0,3.205,0,1.084,0,2.168,0,3.252,0,.208,0,.266.064.264.268-.009,1.021,0,2.043,0,3.064,0,.582-.265.85-.842.851q-2.644,0-5.287,0M8.173,18.5a2.07,2.07,0,0,1-1.824,1.15,1.845,1.845,0,0,1-.776-.144,2.123,2.123,0,0,1-1.112-1.018c-.071-.152-.054-.2.124-.2q.529,0,1.059,0,1.2,0,2.4,0c.19,0,.214.054.129.212M9.029,16.6c.1.238.094.249-.158.249q-1.5,0-2.991,0H5.548c-1.1,0-2.2,0-3.3,0a.706.706,0,0,1-.757-.982,8.283,8.283,0,0,1,.427-1.187,3.138,3.138,0,0,1,3.044-2.008q1.338,0,2.676,0H8.87c.254,0,.258.009.159.247a4.6,4.6,0,0,0,0,3.683m.519-5.364q-.411,0-.823,0c-.591,0-1.182,0-1.772,0q-1.263,0-2.525,0a1.524,1.524,0,0,1-.394-.042.662.662,0,0,1-.476-.755c.067-.375.343-.573.814-.574q2.176,0,4.35,0c.578,0,.863.072.995.353a1.886,1.886,0,0,1,.1.762c0,.212-.072.263-.271.261m8.568-7c.157,0,.23.047.22.214s0,.328,0,.492c0,.669,0,.669-.672.669-.156,0-.312-.008-.468,0s-.232-.045-.235-.223c-.018-.962.2-1.177,1.157-1.154M15.6,8.878A2.028,2.028,0,0,1,16.921,7.2c.141-.059.22-.041.271.127q.561,1.883,1.139,3.76c.042.138.016.19-.133.215a4.932,4.932,0,0,0-1.116.338,5.065,5.065,0,0,0-1.524,1.038c0-.654-.007-1.247,0-1.839a16.4,16.4,0,0,1,.04-1.963m1.453,7.744c-.038.123-.059.238-.233.233-.359-.009-.718,0-1.076,0-.125,0-.184-.041-.186-.175a5.5,5.5,0,0,1,.072-1.118A3.452,3.452,0,0,1,19.8,12.773a3.185,3.185,0,0,1,2.189,1.612l-.105-.043a3.411,3.411,0,0,0-2.421-.157,3.476,3.476,0,0,0-2.409,2.437m3.4,3.012a1.942,1.942,0,0,1-2.072-2.047,2.077,2.077,0,1,1,4.153,0,2.034,2.034,0,0,1-2.081,2.047" transform="translate(903 3467.447)" fill="#313131"/>
    <path id="Path_16712" data-name="Path 16712" d="M70.012,230.79c.226,0,.452,0,.678,0a.717.717,0,1,0,.014-1.433q-.713-.011-1.426,0a.716.716,0,0,0,.01,1.432c.241.006.483,0,.725,0" transform="translate(838.623 3252.138)" fill="#313131"/>
    <path id="Path_16713" data-name="Path 16713" d="M322.426,276.026a.717.717,0,1,0,.7-.72.707.707,0,0,0-.7.72" transform="translate(600.315 3208.996)" fill="#313131"/>
  </g>
</svg>
