<svg xmlns="http://www.w3.org/2000/svg" width="24" height="24" viewBox="0 0 24 24">
  <g id="mydelivery_inactive" transform="translate(-903 -3466)">
    <rect id="Rectangle_273" data-name="Rectangle 273" width="24" height="24" transform="translate(903 3466)" fill="none"/>
    <path id="Path_16699" data-name="Path 16699" d="M0,16.59a2.253,2.253,0,0,0,1.329,1.562,3.03,3.03,0,0,0,1.269.135.276.276,0,0,1,.327.237A3.525,3.525,0,0,0,9.7,18.59a.358.358,0,0,1,.421-.3q3.288.014,6.576,0a.312.312,0,0,1,.366.279A3.375,3.375,0,0,0,20.371,21.1,3.5,3.5,0,0,0,23.9,18.384a1.86,1.86,0,0,0,.077-.436,16.691,16.691,0,0,0-.036-2.453,4.835,4.835,0,0,0-2.516-3.657,4.454,4.454,0,0,0-1.286-.485.333.333,0,0,1-.285-.261q-.569-1.9-1.155-3.8c-.053-.172-.031-.247.167-.234a.9.9,0,0,0,.546-.087.688.688,0,0,0,.363-.614c0-.944.005-1.888,0-2.832a.69.69,0,0,0-.713-.708c-.5-.006-1-.009-1.5,0a2.115,2.115,0,0,0-2.029,2.03c-.005.187-.01.375,0,.561.008.164-.057.218-.218.216q-.948-.009-1.9,0a.7.7,0,0,0-.689.586.724.724,0,0,0,.481.813.9.9,0,0,0,.3.034c.367,0,.733,0,1.1,0,.134,0,.177.036.093.16a3.91,3.91,0,0,0-.585,2.294c.018,2.348,0,4.7.011,7.044,0,.232-.055.31-.3.306-.9-.014-1.81-.011-2.714,0a.459.459,0,0,1-.423-.225,3.221,3.221,0,0,1,.166-3.933,1.44,1.44,0,0,0,.4-1.119c-.027-.333,0-.67-.006-1.006A2.068,2.068,0,0,0,9.944,8.591c-.172-.078-.229-.158-.16-.335a1.447,1.447,0,0,0,.062-.532c0-1.857,0-3.713,0-5.57A2.1,2.1,0,0,0,7.679,0Q4.929,0,2.179,0A2.094,2.094,0,0,0,.071,1.53C.051,1.589.024,1.645,0,1.7v6.46c.022.05.048.1.065.15A2.079,2.079,0,0,0,2.016,9.859c.174.014.156.09.128.214A2.024,2.024,0,0,0,2.4,11.646c.1.159.081.231-.072.328A4.446,4.446,0,0,0,.989,13.357,8.346,8.346,0,0,0,0,15.794ZM4.9,4.247c1.084,0,2.168,0,3.252,0,.208,0,.266.063.264.267-.009,1.022,0,2.043,0,3.065,0,.582-.265.85-.843.851q-2.644,0-5.288,0c-.59,0-.855-.268-.857-.862,0-1.014,0-2.028,0-3.042,0-.212.055-.282.275-.28,1.068.011,2.137,0,3.205,0m.65,12.606c-1.1,0-2.2,0-3.3,0a.705.705,0,0,1-.757-.982,8.268,8.268,0,0,1,.426-1.187,3.139,3.139,0,0,1,3.044-2.008c1.3,0,2.605,0,3.908,0,.254,0,.258.009.159.248a4.6,4.6,0,0,0,0,3.683c.1.238.095.248-.158.249H5.548m14.906,2.781a1.942,1.942,0,0,1-2.072-2.047,2.077,2.077,0,1,1,4.154,0,2.034,2.034,0,0,1-2.081,2.047m1.534-5.249-.105-.043a3.41,3.41,0,0,0-2.421-.157,3.475,3.475,0,0,0-2.409,2.437c-.038.123-.06.238-.234.233-.359-.009-.717,0-1.076,0-.125,0-.184-.041-.186-.175a5.471,5.471,0,0,1,.073-1.118A3.452,3.452,0,0,1,19.8,12.773a3.186,3.186,0,0,1,2.189,1.612M15.558,12.68c0-.654-.007-1.247,0-1.839a16.361,16.361,0,0,1,.04-1.963A2.027,2.027,0,0,1,16.921,7.2c.141-.06.22-.041.27.127q.561,1.882,1.14,3.759c.042.138.016.19-.133.215a4.89,4.89,0,0,0-1.116.338,5.061,5.061,0,0,0-1.524,1.038M4.926,2.81c-1.022,0-2.043,0-3.065,0-.492,0-.438.06-.439-.434,0-.7.24-.937.946-.937H7.305c.933,0,1.105.18,1.11,1.1,0,.226-.078.273-.285.271-1.068-.009-2.137,0-3.205,0m2.026,8.425q-1.263,0-2.526,0a1.491,1.491,0,0,1-.394-.042.662.662,0,0,1-.477-.755c.068-.375.343-.573.814-.574q2.175,0,4.35,0c.924,0,1.1.184,1.1,1.114,0,.212-.072.262-.271.26-.865-.009-1.731,0-2.6,0m-.6,8.412a2.112,2.112,0,0,1-1.887-1.162c-.071-.152-.055-.2.124-.2q1.729.008,3.458,0c.191,0,.215.055.129.212a2.069,2.069,0,0,1-1.825,1.15M17.662,5.619c-.156,0-.312-.008-.468,0s-.232-.044-.235-.223c-.018-.961.2-1.177,1.157-1.154.158,0,.231.047.22.214s0,.327,0,.491c0,.669,0,.669-.672.669" transform="translate(903 3467.447)" fill="#7c7c7c"/>
    <path id="Path_16700" data-name="Path 16700" d="M70.012,230.79c.226,0,.452,0,.678,0a.717.717,0,1,0,.014-1.433c-.475-.007-.951-.008-1.426,0a.716.716,0,0,0,.01,1.432c.241.006.483,0,.725,0" transform="translate(838.623 3252.138)" fill="#7c7c7c"/>
    <path id="Path_16701" data-name="Path 16701" d="M322.426,276.026a.717.717,0,1,0,.7-.72.707.707,0,0,0-.7.72" transform="translate(600.314 3208.997)" fill="#7c7c7c"/>
  </g>
</svg>
