<svg xmlns="http://www.w3.org/2000/svg" width="24" height="24" viewBox="0 0 24 24">
  <g id="Pending_Delivery" data-name="Pending Delivery" transform="translate(-6263 112)">
    <rect id="Rectangle_18256" data-name="Rectangle 18256" width="24" height="24" transform="translate(6263 -112)" fill="none"/>
    <path id="Path_17020" data-name="Path 17020" d="M18,1a1.143,1.143,0,0,1,1.143,1.143V3.286h5.714v6.857H22.55l3.138,8.622A4.573,4.573,0,1,1,17,21.571h-4.86a4.573,4.573,0,0,1-8.913-.259A2.286,2.286,0,0,1,2,19.286V7.857A1.143,1.143,0,0,1,3.143,6.714h8a1.143,1.143,0,0,1,1.143,1.143v5.714a1.143,1.143,0,0,0,1.143,1.143h2.286a1.143,1.143,0,0,0,1.143-1.143V3.286H13.429V1ZM7.714,18.143A2.286,2.286,0,1,0,10,20.429,2.286,2.286,0,0,0,7.714,18.143Zm13.714,0a2.284,2.284,0,1,0,2.148,1.5l-.019-.05A2.286,2.286,0,0,0,21.429,18.142Zm-1.311-8h-.975v3.429A3.429,3.429,0,0,1,15.714,17H13.429A3.429,3.429,0,0,1,10,13.571H4.286V17.4a4.572,4.572,0,0,1,7.856,1.881H17a4.577,4.577,0,0,1,5.221-3.361ZM10,9H4.286v2.286H10ZM22.571,5.571H19.143V7.857h3.429Z" transform="translate(6261 -113)" fill="#fff"/>
  </g>
</svg>
