<svg xmlns="http://www.w3.org/2000/svg" width="24" height="24" viewBox="0 0 24 24">
  <g id="password" transform="translate(-5 -5)">
    <rect id="Rectangle_18121" data-name="Rectangle 18121" width="24" height="24" transform="translate(5 5)" fill="none"/>
    <path id="Path_16721" data-name="Path 16721" d="M20.143,9h2.286a1.143,1.143,0,0,1,1.143,1.143V23.857A1.143,1.143,0,0,1,22.429,25H4.143A1.143,1.143,0,0,1,3,23.857V10.143A1.143,1.143,0,0,1,4.143,9H6.429V7.857a6.857,6.857,0,1,1,13.714,0ZM5.286,11.286V22.714h16V11.286Zm6.857,4.571h2.286v2.286H12.143Zm-4.571,0H9.857v2.286H7.571Zm9.143,0H19v2.286H16.714ZM17.857,9V7.857a4.571,4.571,0,1,0-9.143,0V9Z" transform="translate(3.714 4)" fill="#313131"/>
  </g>
</svg>
