<svg xmlns="http://www.w3.org/2000/svg" width="24" height="24" viewBox="0 0 24 24">
  <g id="Date" transform="translate(-6263 112)">
    <rect id="Rectangle_18256" data-name="Rectangle 18256" width="24" height="24" transform="translate(6263 -112)" fill="none"/>
    <path id="Path_17021" data-name="Path 17021" d="M10.4,1V3.4h7.2V1H20V3.4h4.8A1.2,1.2,0,0,1,26,4.6V23.8A1.2,1.2,0,0,1,24.8,25H3.2A1.2,1.2,0,0,1,2,23.8V4.6A1.2,1.2,0,0,1,3.2,3.4H8V1ZM23.6,13H4.4v9.6H23.6ZM9.2,15.4v2.4H6.8V15.4Zm6,0v2.4H12.8V15.4Zm6,0v2.4H18.8V15.4ZM8,5.8H4.4v4.8H23.6V5.8H20V8.2H17.6V5.8H10.4V8.2H8Z" transform="translate(6261 -113)" fill="#313131"/>
  </g>
</svg>
