<svg id="Rider_Login" data-name="Rider Login" xmlns="http://www.w3.org/2000/svg" xmlns:xlink="http://www.w3.org/1999/xlink" width="376" height="211.314" viewBox="0 0 376 211.314">
  <defs>
    <clipPath id="clip-path">
      <rect id="Rectangle_18091" data-name="Rectangle 18091" width="376" height="211.314" fill="none"/>
    </clipPath>
  </defs>
  <g id="Group_9509" data-name="Group 9509" clip-path="url(#clip-path)">
    <path id="Path_16530" data-name="Path 16530" d="M373.019,369.7H2.98a2.981,2.981,0,0,1,0-5.961H373.019a2.981,2.981,0,1,1,0,5.961" transform="translate(0 -158.384)" fill="#f0bb62"/>
    <path id="Path_16531" data-name="Path 16531" d="M490.622,29.953H383.71a21.78,21.78,0,0,0,7.531-2.49c8.113-4.8,8.378-18.744,18.54-20.787,3.991-.8,8.683,2.6,8.361,6.38,1.925-6.566,10.4-10.563,16.615-7.48,3.958-6.408,14.255-7.531,19.5-2.123,3.879,4,4.742,10.2,8.542,14.272,4,4.279,10.258,5.29,15.966,6.594,4.291.982,8.9,2.591,11.856,5.634" transform="translate(-167.081 0)" fill="#f4e5d4"/>
    <path id="Path_16532" data-name="Path 16532" d="M176.935,48.806H52.629c3.585-1.332,7.8-1.637,11.252-3.111,6.413-2.727,11.528-7.955,16.045-13.092,5.584-6.363,12.014-13.262,20.454-13.866a10.243,10.243,0,0,1,5.437.937c4.071,2.111,5.267,7.266,6.018,11.794,1.7-1.953,4.663-2.405,7.164-1.739a18.793,18.793,0,0,1,6.679,3.856,7.561,7.561,0,0,1,9.626-.119,5.448,5.448,0,0,0,1.857,1.3c1.067.3,2.145-.333,3.235-.525,4.72-.819,7.209,6.227,11.9,7.181a28.792,28.792,0,0,1,3.054.418,24.258,24.258,0,0,1,2.343,1.146c1.586.694,3.387.593,5.109.773,4.5.48,8.525,2.879,12.742,4.528.463.181.926.35,1.389.514" transform="translate(-22.917 -8.144)" fill="#f4e5d4"/>
    <path id="Path_16533" data-name="Path 16533" d="M602.975,202.287H527.419c2.908-2.546,6.634-2.744,9.891-4.533,4.522-2.478,4.7-7.305,7.469-11.1,1.615-2.219,4.957-3.636,7.1-1.925,1.558,1.248,1.982,3.76,3.85,4.471,2.484.943,5.471-2.128,7.678-.649,1.564,1.044,1.564,3.816,3.37,4.336.994.288,2-.316,2.987-.655a6.1,6.1,0,0,1,6.707,2.106c.576.779,1.033,1.767,1.953,2.072a4.083,4.083,0,0,0,2.016-.1c3.7-.7,7.452.587,11,1.852q5.776,2.066,11.54,4.127" transform="translate(-229.657 -80.105)" fill="#f2f2f2"/>
    <path id="Path_16534" data-name="Path 16534" d="M373.916,239.151H10.43c.045-1.677.045-3.354.051-5,.028-21.4,17.326-42.794,22.441-63.57,1.547-6.3,3.41-12.708,7.339-17.874s10.388-8.869,16.79-7.814c8.869,1.462,14.656,11.139,23.525,12.584,10.416,1.7,18.659-8.384,23.971-17.5s12.087-19.72,22.633-20.014c3.269-.1,6.459.886,9.7,1.3,12.426,1.592,24.417-5.132,34.117-13.058s11.719-18.823,22.31-25.509c13.058-8.244,31.414-6.389,42.333,4.97,9.047,9.411,8.384,24.8,16.118,35.325,14.933,20.319,52.375,11.67,65.969,32.9,6.995,10.924,4.387,25.439,8.954,37.583,4.646,12.364,23.094,20.669,33.024,29.38,5.352,4.692,10.625,10.173,14.21,16.288" transform="translate(-4.542 -33.796)" fill="#f4e5d4"/>
    <path id="Path_16535" data-name="Path 16535" d="M138.506,200.191H102a.738.738,0,0,0-.738.738v4.005a.738.738,0,0,0,.738.738h36.5a.738.738,0,0,0,.738-.738v-4.005a.738.738,0,0,0-.738-.738" transform="translate(-44.095 -87.17)" fill="#f0bb62"/>
    <path id="Path_16536" data-name="Path 16536" d="M131.09,190.483h-36.5a.738.738,0,0,0-.738.738v4.005a.738.738,0,0,0,.738.738h36.5a.738.738,0,0,0,.738-.738v-4.005a.738.738,0,0,0-.738-.738" transform="translate(-40.866 -82.943)" fill="#1c7d88"/>
    <path id="Path_16537" data-name="Path 16537" d="M139.413,171.067h-36.5a.738.738,0,0,0-.738.738v4.005a.738.738,0,0,0,.738.738h36.5a.738.738,0,0,0,.738-.738V171.8a.738.738,0,0,0-.738-.738" transform="translate(-44.49 -74.489)" fill="#1c7d88"/>
    <path id="Path_16538" data-name="Path 16538" d="M136.213,180.775h-36.5a.738.738,0,0,0-.738.738v4.005a.738.738,0,0,0,.738.738h36.5a.738.738,0,0,0,.738-.738v-4.005a.738.738,0,0,0-.738-.738" transform="translate(-43.097 -78.716)" fill="#f0bb62"/>
    <path id="Path_16539" data-name="Path 16539" d="M132.524,161.359h-36.5a.738.738,0,0,0-.738.738V166.1a.738.738,0,0,0,.738.738h36.5a.738.738,0,0,0,.738-.738V162.1a.738.738,0,0,0-.738-.738" transform="translate(-41.49 -70.261)" fill="#f0bb62"/>
    <path id="Path_16540" data-name="Path 16540" d="M347.487,284.014a22.5,22.5,0,1,0,22.506,22.506,22.5,22.5,0,0,0-22.506-22.506m0,38.7a16.2,16.2,0,1,1,16.2-16.2,16.2,16.2,0,0,1-16.2,16.2" transform="translate(-141.51 -123.67)" fill="#002f35"/>
    <path id="Path_16541" data-name="Path 16541" d="M366.849,317.121a8.758,8.758,0,1,1-8.759-8.759,8.759,8.759,0,0,1,8.759,8.759" transform="translate(-152.112 -134.272)" fill="#002f35"/>
    <path id="Path_16542" data-name="Path 16542" d="M161.846,284.014a22.5,22.5,0,1,0,22.506,22.506,22.5,22.5,0,0,0-22.506-22.506m0,38.7a16.2,16.2,0,1,1,16.2-16.2,16.2,16.2,0,0,1-16.2,16.2" transform="translate(-60.675 -123.67)" fill="#002f35"/>
    <path id="Path_16543" data-name="Path 16543" d="M181.207,317.121a8.759,8.759,0,1,1-8.759-8.759,8.759,8.759,0,0,1,8.759,8.759" transform="translate(-71.276 -134.272)" fill="#002f35"/>
    <path id="Path_16544" data-name="Path 16544" d="M361.019,295.134v.244a2.535,2.535,0,0,1-2.534,2.538H288.7l23.725-24.46h26.918a21.675,21.675,0,0,1,21.673,21.678" transform="translate(-125.712 -119.072)" fill="#1c7d88"/>
    <path id="Path_16545" data-name="Path 16545" d="M334.429,273.457a49.563,49.563,0,0,1-7.552,13.185c-7.073,8.471-22.344,9.616-22.344,9.616L322.385,278.6l5.009-5.146Z" transform="translate(-132.604 -119.073)" fill="#064f57"/>
    <path id="Path_16546" data-name="Path 16546" d="M202.024,239.14H110.852a5.548,5.548,0,0,1-5.53-6.065c.8-8.24,3.872-23.208,15.421-34.269a44.374,44.374,0,0,1,6.372-5.064l44.445.017s.321,2.03.924,5.047c1.731,8.706,5.774,25.618,11.035,25.618,5.445,0,17.237.013,27.029.013,8.728,0,21.293-12.117,20.806-29.913s-20.814-56.545-20.814-56.545l3.624-.282s26.836,31.452,30.6,51.664c4.073,21.874-5.569,49.779-42.735,49.779" transform="translate(-45.849 -59.958)" fill="#1c7d88"/>
    <path id="Path_16547" data-name="Path 16547" d="M334.357,203.28c2.86,5.43,5.079,10.778,5.943,15.418q.212,1.136.366,2.268" transform="translate(-145.591 -88.515)" fill="none" stroke="#fff" stroke-linecap="round" stroke-miterlimit="10" stroke-width="2.271"/>
    <path id="Path_16548" data-name="Path 16548" d="M326.922,190.267q1.1,1.8,2.146,3.619" transform="translate(-142.353 -82.849)" fill="none" stroke="#fff" stroke-linecap="round" stroke-miterlimit="10" stroke-width="2.271"/>
    <path id="Path_16549" data-name="Path 16549" d="M376.042,281.025h1.332a17.434,17.434,0,0,1,16.4,11.567" transform="translate(-163.742 -122.368)" fill="none" stroke="#fff" stroke-linecap="round" stroke-miterlimit="10" stroke-width="2.271"/>
    <line id="Line_65" data-name="Line 65" x2="4.212" transform="translate(204.664 158.657)" fill="none" stroke="#fff" stroke-linecap="round" stroke-miterlimit="10" stroke-width="2.271"/>
    <path id="Path_16550" data-name="Path 16550" d="M155.563,269.187A30.87,30.87,0,0,0,124.91,296.37h61.306a30.87,30.87,0,0,0-30.653-27.183" transform="translate(-54.39 -117.214)" fill="#064f57"/>
    <path id="Path_16551" data-name="Path 16551" d="M184.694,277.075a26.6,26.6,0,0,1,17.657,9.8" transform="translate(-80.422 -120.648)" fill="none" stroke="#fff" stroke-linecap="round" stroke-miterlimit="10" stroke-width="2.271"/>
    <path id="Path_16552" data-name="Path 16552" d="M170.508,277.24a26.608,26.608,0,0,1,3.5-.418" transform="translate(-74.245 -120.538)" fill="none" stroke="#fff" stroke-linecap="round" stroke-miterlimit="10" stroke-width="2.271"/>
    <path id="Path_16553" data-name="Path 16553" d="M184.4,242.032H132.655a44.382,44.382,0,0,1,6.373-5.065l44.445.017s.321,2.03.923,5.048" transform="translate(-57.763 -103.184)" fill="#064f57"/>
    <path id="Path_16554" data-name="Path 16554" d="M144.7,209.9h42.445a8.642,8.642,0,1,1,0,17.284H144.7a8.642,8.642,0,1,1,0-17.284" transform="translate(-59.245 -91.397)" fill="#002f35"/>
    <path id="Path_16555" data-name="Path 16555" d="M188.089,234.863h-44.7a7.326,7.326,0,0,1-7.326-7.326h59.357a7.326,7.326,0,0,1-7.326,7.326" transform="translate(-59.245 -99.078)" fill="#002f35"/>
    <path id="Path_16556" data-name="Path 16556" d="M362.517,238.156a6,6,0,1,1,0,12Z" transform="translate(-157.853 -103.702)" fill="#ffa54c"/>
    <path id="Path_16557" data-name="Path 16557" d="M359.414,249.56a1.332,1.332,0,0,1-1.56,1.308,9.322,9.322,0,0,1,0-18.381,1.332,1.332,0,0,1,1.56,1.308Z" transform="translate(-152.443 -101.225)" fill="#002f35"/>
    <path id="Path_16558" data-name="Path 16558" d="M93.311,278.973a6,6,0,1,0,0,12Z" transform="translate(-38.019 -121.475)" fill="#1c7d88"/>
    <path id="Path_16559" data-name="Path 16559" d="M93.851,290.377a1.332,1.332,0,0,0,1.559,1.308,9.322,9.322,0,0,0,0-18.381,1.332,1.332,0,0,0-1.559,1.308Z" transform="translate(-40.866 -118.998)" fill="#002f35"/>
    <path id="Path_16560" data-name="Path 16560" d="M91.475,214.294H138.2v-4.4H91.475a2.2,2.2,0,0,0,0,4.4" transform="translate(-38.875 -91.397)" fill="#002f35"/>
    <path id="Path_16561" data-name="Path 16561" d="M242.559,289.542h25.575a12.866,12.866,0,0,0,8.938-2.3,4.485,4.485,0,0,1-4.485,4.485H242.559a1.093,1.093,0,1,1,0-2.185" transform="translate(-105.143 -125.076)" fill="#002f35"/>
    <path id="Path_16562" data-name="Path 16562" d="M199.258,98.933a9.21,9.21,0,0,0,12.511,3.561,10.533,10.533,0,0,1,.758-10.992,16.843,16.843,0,0,1-7.153-4.85c-.335-.387-.956-1.221-1.523-1.258-.834-.054-.457.684-.4,1.343a15.832,15.832,0,0,1-4.2,12.2" transform="translate(-86.764 -37.182)" fill="#edb091"/>
    <path id="Path_16563" data-name="Path 16563" d="M213.831,84.569c5.556-.431,9.106-9.709,7.824-15.182s-6.769-8.455-12.953-6.711c-6.36,1.793-7.941,10.371-4.279,15.633,3.561,5.117,6.425,6.491,9.408,6.26" transform="translate(-88.169 -27.075)" fill="#ffc8a9"/>
    <path id="Path_16564" data-name="Path 16564" d="M203.794,66.676c-2.7,4.017-2.727,6.934-2.054,9.827s1.717,4.8,3.112,5.457,3.941-.37,4.291-4.11,1.489-5.558,3.552-3.733,1.264.606,2.638-1.485,4.166-2.03,5.839-2.939-.66-4.57-4.293-6.016-10.272-1.188-13.084,3" transform="translate(-87.685 -27.38)" fill="#002f35"/>
    <path id="Path_16565" data-name="Path 16565" d="M231.611,82.231c.025.326-.133.6-.353.622s-.419-.234-.444-.559.133-.6.353-.622.419.233.445.559" transform="translate(-100.503 -35.562)" fill="#002f35"/>
    <path id="Path_16566" data-name="Path 16566" d="M219.273,84.07a2.419,2.419,0,0,0-1.6-1.033,1.442,1.442,0,0,0-1.127.222,1.463,1.463,0,0,0-.461,1.244,3.309,3.309,0,0,0,.76,1.816,9.9,9.9,0,0,0,1.435,1.387c.1.086.232.178.358.134a.4.4,0,0,0,.2-.242c.52-1.194,1.266-2.272.433-3.528" transform="translate(-94.091 -36.145)" fill="#edb091"/>
    <path id="Path_16567" data-name="Path 16567" d="M260.556,280.447a94.646,94.646,0,0,0,18.423.732c1.212-.071,2.627-.291,3.2-1.362a2.477,2.477,0,0,0-.358-2.563,7.284,7.284,0,0,0-2.111-1.707l-7.852-4.864a15.424,15.424,0,0,0-3.449-1.754c-2.353-.733-6.41-1.089-7.272,1.581-.283.876-1.385,9.826-.579,9.937" transform="translate(-113.329 -116.871)" fill="#064f57"/>
    <path id="Path_16568" data-name="Path 16568" d="M253.2,283.161a94.641,94.641,0,0,0,18.422.732c1.212-.071,2.628-.291,3.2-1.362a2.477,2.477,0,0,0-.359-2.563,7.283,7.283,0,0,0-2.111-1.707L264.5,273.4a15.423,15.423,0,0,0-3.449-1.754c-2.353-.733-6.41-1.089-7.272,1.581-.283.876-1.385,9.826-.579,9.937" transform="translate(-110.128 -118.052)" fill="#1c7d88"/>
    <path id="Path_16569" data-name="Path 16569" d="M280.273,122.534a6.11,6.11,0,0,1,3.452-.712,3.529,3.529,0,0,1,2.808,1.953,2.508,2.508,0,0,1-.94,3.121c-1.086.594-2.486.151-3.628.628-1.456.607-1.922,2.38-2.588,3.809a9.656,9.656,0,0,1-8.668,5.449c-.191-1.45-1.039-4.071-.257-5.218.745-1.093,2.37-2.056,3.3-3.079,1.976-2.174,3.831-4.614,6.521-5.951" transform="translate(-117.622 -53.029)" fill="#edb091"/>
    <path id="Path_16570" data-name="Path 16570" d="M219.257,118.733c-2.355-1.427-4.246-5.86-6.925-5.227s-5.489,6.351-5.8,9.084a9.736,9.736,0,0,0,2.73,7.518,16.82,16.82,0,0,0,6.978,4.243,32.29,32.29,0,0,0,14.041,1.324A55.054,55.054,0,0,0,244,132.08c.694-.27,1.474-.648,1.646-1.372a2.357,2.357,0,0,0-.146-1.21q-.9-2.961-1.8-5.922c-2.759.963-10.706.4-16.027-.68-2.611-.532-6.237-2.841-8.416-4.161" transform="translate(-89.911 -49.398)" fill="#064f57"/>
    <path id="Path_16571" data-name="Path 16571" d="M184.308,164.255c-1.449,7.535-.869,18.982,4.927,21.735s31.191,3.333,31.245,5.217-1.937,5.8,0,13.186,5.7,20,5.7,20,8.127.435,10.874,0a11.591,11.591,0,0,1,4.781.193s3.435-32.8-1.763-41.78-32.73-15.07-32.73-15.07Z" transform="translate(-79.962 -71.522)" fill="#bc8e4a"/>
    <path id="Path_16572" data-name="Path 16572" d="M176.608,171.039c-1.449,7.535-.869,18.982,4.927,21.735s31.191,3.333,31.245,5.217-1.937,5.8,0,13.186,5.7,20,5.7,20,8.127.435,10.874,0,6.8-1.594,6.8-1.594,1.413-31.009-3.786-39.993-32.729-15.07-32.729-15.07Z" transform="translate(-76.609 -74.476)" fill="#f0bb62"/>
    <path id="Path_16573" data-name="Path 16573" d="M205.949,138.432c-.021.107-.043.213-.06.329-.3,1.855-.055,4.624-1.06,6.415a3.511,3.511,0,0,1-.209.334A26.714,26.714,0,0,1,199.551,151a9.286,9.286,0,0,1-3.21,1.142q-9.219,2.064-18.447,4.137c-1.321.295-2.86.547-3.911-.312a4.284,4.284,0,0,1-1.149-3.214c-.41-8.159,2.073-16.16,4.637-23.917a93.08,93.08,0,0,1,5.513-13.942,15.336,15.336,0,0,1,3-4.274c3.154-3.064,6.061-1.714,9.48-.171a21.379,21.379,0,0,1,6.394,3.846,13.572,13.572,0,0,1,3.6,7.236,23.22,23.22,0,0,1,.363,2.624,35.5,35.5,0,0,1,.1,3.919c-.094,3.667.79,6.77.025,10.356" transform="translate(-75.239 -47.367)" fill="#1c7d88"/>
    <path id="Path_16574" data-name="Path 16574" d="M216.39,149.967c-.3,1.855-.055,4.624-1.06,6.415-1.732-.355-3.864-.825-4.569-1.026a19.249,19.249,0,0,1-10.809-7.808,18.9,18.9,0,0,1-2.842-13.031,24.959,24.959,0,0,0,7.843,9.612c2.714,2.09,5.825,3.535,8.732,5.206a15.812,15.812,0,0,0,2.705.632" transform="translate(-85.74 -58.573)" fill="#064f57"/>
    <path id="Path_16575" data-name="Path 16575" d="M280.709,128.15a6.11,6.11,0,0,1,3.452-.712,3.529,3.529,0,0,1,2.808,1.953,2.507,2.507,0,0,1-.94,3.121c-1.086.594-2.486.151-3.628.628-1.456.607-1.922,2.38-2.588,3.809a9.656,9.656,0,0,1-8.668,5.449c-.191-1.45-1.039-4.07-.257-5.218.746-1.093,2.37-2.056,3.3-3.079,1.976-2.173,3.831-4.614,6.521-5.951" transform="translate(-117.812 -55.475)" fill="#ffc8a9"/>
    <path id="Path_16576" data-name="Path 16576" d="M223.726,131.1l-9.1-4.92-.722-1.457c2.355.008,5.436,2,6.467,2.428.671.278,2.094.919,3,1.325a23.484,23.484,0,0,1,.363,2.624" transform="translate(-93.14 -54.308)" fill="#064f57"/>
    <path id="Path_16577" data-name="Path 16577" d="M210,126.414c-2.77-1.678-5.986-3.206-9.137-2.462a8.127,8.127,0,0,0-5.827,7,11.454,11.454,0,0,0,3.211,8.843,19.787,19.787,0,0,0,8.207,4.991,37.969,37.969,0,0,0,16.515,1.557,64.706,64.706,0,0,0,16.132-4.23c.816-.317,1.734-.762,1.936-1.614a2.779,2.779,0,0,0-.171-1.424l-2.117-6.965c-3.245,1.132-12.591.474-18.85-.8-3.071-.625-7.336-3.342-9.9-4.894" transform="translate(-84.898 -53.889)" fill="#1c7d88"/>
    <path id="Path_16578" data-name="Path 16578" d="M293.994,134.859a3.637,3.637,0,1,1-3.908-3.345,3.637,3.637,0,0,1,3.908,3.345" transform="translate(-124.853 -57.261)" fill="#002f35"/>
    <path id="Path_16579" data-name="Path 16579" d="M208.413,73.818c.808-3.892,1.142-5.557,3.188-6.33s9.944,1.795,10.655.416c.393-.762,2.16-8.321-3.658-13.228-4.752-4.007-13.186-5.144-18.812.8a14.307,14.307,0,0,0-2.813,16.441c2.674,5.849,10.293,6.762,10.514,6.435.37-.548.512-2.537.926-4.53" transform="translate(-85.145 -22.356)" fill="#f0bb62"/>
    <path id="Path_16580" data-name="Path 16580" d="M226.866,60.278a9.714,9.714,0,0,1,2.616,1.557,7.408,7.408,0,0,1,2.473,4.072" transform="translate(-98.785 -26.247)" fill="none" stroke="#fff" stroke-linecap="round" stroke-miterlimit="10" stroke-width="2.271"/>
    <path id="Path_16581" data-name="Path 16581" d="M217.45,59.025a9.228,9.228,0,0,1,1.434-.112,9.879,9.879,0,0,1,1.357.095" transform="translate(-94.685 -25.653)" fill="none" stroke="#fff" stroke-linecap="round" stroke-miterlimit="10" stroke-width="2.271"/>
    <path id="Path_16582" data-name="Path 16582" d="M213.9,94.22s2.324,5.756,3.272,6.01,2.721-.776,2.721-.776a10,10,0,0,1-3.067-2.5,10.692,10.692,0,0,1-1.691-3.312Z" transform="translate(-93.139 -40.776)" fill="#002f35"/>
    <path id="Path_16583" data-name="Path 16583" d="M312.661,354.223H245s6.544-2.072,8.616-2.751,3.26-3.382,5.974-3.557,5.091,2.539,5.091,2.539.678-4.92,3.732-5.429,5.429,2.89,5.429,2.89.771-5.279,4.986-5.944a5,5,0,0,1,5.193,2.036,6.089,6.089,0,0,1,3.054-.339c3.749.692,3.688,3.2,4.75,4.43,1.843,2.128,6.277,2.7,10.689,3.545s10.142,2.581,10.142,2.581" transform="translate(-106.683 -148.87)" fill="#1c7d88"/>
    <path id="Path_16584" data-name="Path 16584" d="M123.756,356.235H56.1s8.636-1.426,10.709-2.1,2.235-1.946,4.95-2.121a8.715,8.715,0,0,1,4.023.457,5.314,5.314,0,0,1,3.94-3.639,7.33,7.33,0,0,1,5.222,1.1s.771-1.742,4.986-2.407a7.823,7.823,0,0,1,5.868,1.19,5.8,5.8,0,0,1,5.412-2.117c3.755.655,6.133,2.106,7.2,3.334,1.843,2.129.8,2.879,5.21,3.727s10.142,2.581,10.142,2.581" transform="translate(-24.427 -150.882)" fill="#1c7d88"/>
    <path id="Path_16585" data-name="Path 16585" d="M278.175,276.436a1.687,1.687,0,0,0-1.488.746,11.913,11.913,0,0,0-1.929,2.929" transform="translate(-119.639 -120.36)" fill="none" stroke="#424242" stroke-linecap="round" stroke-miterlimit="10" stroke-width="1"/>
    <path id="Path_16586" data-name="Path 16586" d="M279.831,279.483a1.506,1.506,0,0,0-1.375.578,3.954,3.954,0,0,0-1.047,2.327" transform="translate(-120.794 -121.684)" fill="none" stroke="#424242" stroke-linecap="round" stroke-miterlimit="10" stroke-width="1"/>
    <path id="Path_16587" data-name="Path 16587" d="M282.739,280.69a5.029,5.029,0,0,0-1.657,1.489c-.241.343-.388.913-.014,1.1" transform="translate(-122.288 -122.222)" fill="none" stroke="#424242" stroke-linecap="round" stroke-miterlimit="10" stroke-width="1"/>
    <path id="Path_16588" data-name="Path 16588" d="M285.741,274.589a2.553,2.553,0,0,0-1.756,2.241" transform="translate(-123.657 -119.566)" fill="none" stroke="#424242" stroke-linecap="round" stroke-miterlimit="10" stroke-width="1"/>
    <path id="Path_16589" data-name="Path 16589" d="M287.929,276.258c.08-.05.02-.189-.072-.207a.358.358,0,0,0-.257.094c-.669.473-1.414,1.1-1.345,1.917" transform="translate(-124.644 -120.201)" fill="none" stroke="#424242" stroke-linecap="round" stroke-miterlimit="10" stroke-width="1"/>
    <path id="Path_16590" data-name="Path 16590" d="M289.841,278.426a2.324,2.324,0,0,0-1.96,1.852" transform="translate(-125.354 -121.237)" fill="none" stroke="#424242" stroke-linecap="round" stroke-miterlimit="10" stroke-width="1"/>
    <path id="Path_16591" data-name="Path 16591" d="M272.882,289.973c-6.426.757-13,1.508-19.315.106" transform="translate(-110.412 -126.265)" fill="none" stroke="#424242" stroke-linecap="round" stroke-miterlimit="10" stroke-width="1"/>
    <path id="Path_16592" data-name="Path 16592" d="M295.138,287.529a10.3,10.3,0,0,1-3.558.425" transform="translate(-126.964 -125.2)" fill="none" stroke="#424242" stroke-linecap="round" stroke-miterlimit="10" stroke-width="1"/>
    <path id="Path_16593" data-name="Path 16593" d="M193.152,191.008a5.539,5.539,0,0,0,3.112,3.832,14.28,14.28,0,0,0,4.951,1.205c6.076.654,12.314.568,18.12,2.474a12.353,12.353,0,0,1,5.647,3.373,13.58,13.58,0,0,1,2.28,4.316,81.045,81.045,0,0,1,2.925,10.955q2.237,10.614,3.685,21.374" transform="translate(-84.105 -83.172)" fill="none" stroke="#424242" stroke-linecap="round" stroke-miterlimit="10" stroke-width="1"/>
    <path id="Path_16594" data-name="Path 16594" d="M208.181,187.287a1.054,1.054,0,0,1,.626.557,5.85,5.85,0,0,1-.63,6.728" transform="translate(-90.648 -81.551)" fill="none" stroke="#424242" stroke-linecap="round" stroke-miterlimit="10" stroke-width="1"/>
    <path id="Path_16595" data-name="Path 16595" d="M267.94,269.924a24.533,24.533,0,0,1-16.428.733" transform="translate(-109.517 -117.534)" fill="none" stroke="#424242" stroke-linecap="round" stroke-miterlimit="10" stroke-width="1"/>
    <path id="Path_16596" data-name="Path 16596" d="M204.722,123.121c-2.178-.15-4.1,1.507-5.225,3.376a12.217,12.217,0,0,0-1.313,9.4.866.866,0,0,0,.314.543" transform="translate(-86.117 -53.607)" fill="none" stroke="#424242" stroke-linecap="round" stroke-miterlimit="10" stroke-width="1"/>
    <path id="Path_16597" data-name="Path 16597" d="M243.071,145.9c-6,2.623-12.8,2.73-19.3,1.942-6.779-.822-13.732-2.723-18.772-7.331" transform="translate(-89.264 -61.182)" fill="none" stroke="#424242" stroke-linecap="round" stroke-miterlimit="10" stroke-width="1"/>
    <path id="Path_16598" data-name="Path 16598" d="M203.227,177.945a34.585,34.585,0,0,1-26.988,3.034" transform="translate(-76.741 -77.484)" fill="none" stroke="#424242" stroke-linecap="round" stroke-miterlimit="10" stroke-width="1"/>
    <path id="Path_16599" data-name="Path 16599" d="M198.864,154.207q-.732,8.508-1.273,17.032" transform="translate(-86.038 -67.147)" fill="none" stroke="#424242" stroke-linecap="round" stroke-miterlimit="10" stroke-width="1"/>
    <path id="Path_16600" data-name="Path 16600" d="M201.32,109.321a15.852,15.852,0,0,0,10.31,4.155" transform="translate(-87.662 -47.602)" fill="none" stroke="#424242" stroke-linecap="round" stroke-miterlimit="10" stroke-width="1"/>
    <path id="Path_16601" data-name="Path 16601" d="M292.421,130.328a5.148,5.148,0,0,0-6.081.537" transform="translate(-124.683 -56.422)" fill="none" stroke="#424242" stroke-linecap="round" stroke-miterlimit="10" stroke-width="1"/>
    <path id="Path_16602" data-name="Path 16602" d="M293.548,125.762a4.65,4.65,0,0,0-4.937-.315" transform="translate(-125.671 -54.379)" fill="none" stroke="#424242" stroke-linecap="round" stroke-miterlimit="10" stroke-width="1"/>
    <path id="Path_16603" data-name="Path 16603" d="M225.25,94.318a5.992,5.992,0,0,0,2.739.419" transform="translate(-98.082 -41.069)" fill="none" stroke="#424242" stroke-linecap="round" stroke-miterlimit="10" stroke-width="1"/>
    <path id="Path_16604" data-name="Path 16604" d="M199.786,76.083a12.463,12.463,0,0,0,3.549,8.1,5.452,5.452,0,0,0,2.25,1.495" transform="translate(-86.994 -33.129)" fill="none" stroke="#424242" stroke-linecap="round" stroke-miterlimit="10" stroke-width="1"/>
    <path id="Path_16605" data-name="Path 16605" d="M206.923,86.627a4.392,4.392,0,0,0,1.765,1.472" transform="translate(-90.102 -37.72)" fill="none" stroke="#424242" stroke-linecap="round" stroke-miterlimit="10" stroke-width="1"/>
    <path id="Path_16606" data-name="Path 16606" d="M127.029,253.77a29.762,29.762,0,0,0-7.094,13.492" transform="translate(-52.224 -110.5)" fill="none" stroke="#424242" stroke-linecap="round" stroke-miterlimit="10" stroke-width="1"/>
    <path id="Path_16607" data-name="Path 16607" d="M137.059,290.274a25.362,25.362,0,0,0-5,9.221" transform="translate(-57.505 -126.396)" fill="none" stroke="#424242" stroke-linecap="round" stroke-miterlimit="10" stroke-width="1"/>
    <path id="Path_16608" data-name="Path 16608" d="M109.02,306.624a3.354,3.354,0,0,0,3.252,4.186" transform="translate(-47.427 -133.515)" fill="none" stroke="#424242" stroke-linecap="round" stroke-miterlimit="10" stroke-width="1"/>
    <path id="Path_16609" data-name="Path 16609" d="M373.536,311.614V311.5H324.305" transform="translate(-141.214 -135.636)" fill="none" stroke="#424242" stroke-linecap="round" stroke-miterlimit="10" stroke-width="1"/>
    <path id="Path_16610" data-name="Path 16610" d="M271.419,311.5H237.888" transform="translate(-103.585 -135.636)" fill="none" stroke="#424242" stroke-linecap="round" stroke-miterlimit="10" stroke-width="1"/>
    <line id="Line_66" data-name="Line 66" x1="51.035" transform="translate(75.198 177.29)" fill="none" stroke="#424242" stroke-linecap="round" stroke-miterlimit="10" stroke-width="1"/>
    <path id="Path_16611" data-name="Path 16611" d="M321.738,242.574a32.842,32.842,0,0,1-12.456,25.208" transform="translate(-134.672 -105.625)" fill="none" stroke="#424242" stroke-linecap="round" stroke-miterlimit="10" stroke-width="1"/>
    <path id="Path_16612" data-name="Path 16612" d="M119.061,338.92a21.813,21.813,0,0,1-4.846-7.043" transform="translate(-49.733 -144.511)" fill="none" stroke="#424242" stroke-linecap="round" stroke-miterlimit="10" stroke-width="1"/>
    <path id="Path_16613" data-name="Path 16613" d="M109.222,340.834a8.3,8.3,0,0,1-6.376-4.968" transform="translate(-44.783 -146.248)" fill="none" stroke="#424242" stroke-linecap="round" stroke-miterlimit="10" stroke-width="1"/>
    <path id="Path_16614" data-name="Path 16614" d="M83.965,348.763a12.97,12.97,0,0,1-6.613-3.275" transform="translate(-33.682 -150.438)" fill="none" stroke="#424242" stroke-linecap="round" stroke-miterlimit="10" stroke-width="1"/>
    <path id="Path_16615" data-name="Path 16615" d="M283.54,336.4a26.125,26.125,0,0,1-8.906-3.589" transform="translate(-119.585 -144.916)" fill="none" stroke="#424242" stroke-linecap="round" stroke-miterlimit="10" stroke-width="1"/>
    <path id="Path_16616" data-name="Path 16616" d="M253.236,350.925a11.817,11.817,0,0,1-12.179-3.219" transform="translate(-104.965 -151.404)" fill="none" stroke="#424242" stroke-linecap="round" stroke-miterlimit="10" stroke-width="1"/>
    <path id="Path_16617" data-name="Path 16617" d="M126.833,82.658c-9.145-6.3-21.064-6.661-32.137-5.8s-22.374,2.707-33.152.023" transform="translate(-26.798 -33.318)" fill="none" stroke="#424242" stroke-linecap="round" stroke-miterlimit="10" stroke-width="1"/>
    <path id="Path_16618" data-name="Path 16618" d="M65.744,176.583c-3.6-2.518-8.339-2.534-12.719-2.206s-8.955.877-13.026-.771" transform="translate(-17.417 -75.595)" fill="none" stroke="#424242" stroke-linecap="round" stroke-miterlimit="10" stroke-width="1"/>
    <path id="Path_16619" data-name="Path 16619" d="M82.388,239.841c-4.525-2.281-9.884-2.1-14.9-1.352s-10.006,2.028-15.067,1.764S42.034,237.83,39.6,233.386" transform="translate(-17.243 -101.625)" fill="none" stroke="#424242" stroke-linecap="round" stroke-miterlimit="10" stroke-width="1"/>
    <path id="Path_16620" data-name="Path 16620" d="M60.8,257.571A25.484,25.484,0,0,1,45.555,254.8" transform="translate(-19.836 -110.948)" fill="none" stroke="#424242" stroke-linecap="round" stroke-miterlimit="10" stroke-width="1"/>
    <path id="Path_16621" data-name="Path 16621" d="M56.784,316.74a48.7,48.7,0,0,1-30.065-3.807" transform="translate(-11.634 -136.262)" fill="none" stroke="#424242" stroke-linecap="round" stroke-miterlimit="10" stroke-width="1"/>
    <path id="Path_16622" data-name="Path 16622" d="M533,268.534H521.775l5.614-25.9,17.966,2.119Z" transform="translate(-227.199 -105.652)" fill="#bc8e4a"/>
    <path id="Path_16623" data-name="Path 16623" d="M551.586,110.768c0,23.962-43.388,81.454-43.388,81.454S464.81,134.73,464.81,110.768a43.388,43.388,0,0,1,86.776,0" transform="translate(-202.395 -29.34)" fill="#bc8e4a"/>
    <path id="Path_16624" data-name="Path 16624" d="M604.324,128.05a37.7,37.7,0,0,1,1.118,9.136c0,4.025-1.509,9.35-3.985,15.369" transform="translate(-261.896 -55.758)" fill="none" stroke="#fff" stroke-linecap="round" stroke-miterlimit="10" stroke-width="2"/>
    <path id="Path_16625" data-name="Path 16625" d="M596.636,106.229a37.745,37.745,0,0,1,3.715,6.73" transform="translate(-259.796 -46.256)" fill="none" stroke="#fff" stroke-linecap="round" stroke-miterlimit="10" stroke-width="2"/>
    <path id="Path_16626" data-name="Path 16626" d="M531.7,110.768c0,23.962-43.389,81.454-43.389,81.454s-43.388-57.492-43.388-81.454a43.388,43.388,0,0,1,86.776,0" transform="translate(-193.735 -29.34)" fill="#f0bb62"/>
    <path id="Path_16627" data-name="Path 16627" d="M494.148,185.177c-4.082-5.761-9.731-13.985-15.331-22.957-17.827-28.562-20.489-40.838-20.489-45.614a35.82,35.82,0,0,1,71.639,0c0,4.783-2.669,17.081-20.545,45.7-5.588,8.948-11.209,17.131-15.274,22.868" transform="translate(-199.572 -35.177)" fill="#f0bb62"/>
    <path id="Path_16628" data-name="Path 16628" d="M496.807,204.434c-2.42-3.612-5.017-7.592-7.6-11.733-11.016-17.651-15.888-28.584-18.018-35.048" transform="translate(-205.172 -68.648)" fill="none" stroke="#424242" stroke-linecap="round" stroke-miterlimit="10" stroke-width="1"/>
    <path id="Path_16629" data-name="Path 16629" d="M526.183,123.817a19.275,19.275,0,1,1-19.275-19.275,19.275,19.275,0,0,1,19.275,19.275" transform="translate(-212.333 -45.521)" fill="#f2f2f2"/>
    <path id="Path_16630" data-name="Path 16630" d="M508.519,149.919a13.641,13.641,0,0,1-10.608-16.1" transform="translate(-216.688 -58.272)" fill="none" stroke="#424242" stroke-linecap="round" stroke-miterlimit="10" stroke-width="1"/>
    <path id="Path_16631" data-name="Path 16631" d="M537.57,359.313H479.632a2.87,2.87,0,1,1,0-5.74H537.57a2.87,2.87,0,0,1,0,5.74" transform="translate(-207.599 -153.958)" fill="#1c7d88"/>
  </g>
</svg>
