<svg id="Rider_Pass_Forgot" data-name="Rider Pass Forgot" xmlns="http://www.w3.org/2000/svg" xmlns:xlink="http://www.w3.org/1999/xlink" width="375" height="260.9" viewBox="0 0 375 260.9">
  <defs>
    <clipPath id="clip-path">
      <rect id="Rectangle_18098" data-name="Rectangle 18098" width="375" height="260.9" fill="none"/>
    </clipPath>
    <clipPath id="clip-path-2">
      <rect id="Rectangle_18097" data-name="Rectangle 18097" width="375" height="260.901" fill="none"/>
    </clipPath>
    <clipPath id="clip-path-3">
      <rect id="Rectangle_18094" data-name="Rectangle 18094" width="141.729" height="83.183" fill="none"/>
    </clipPath>
    <clipPath id="clip-path-4">
      <rect id="Rectangle_18095" data-name="Rectangle 18095" width="5.888" height="5.888" fill="none"/>
    </clipPath>
  </defs>
  <g id="Group_9522" data-name="Group 9522" clip-path="url(#clip-path)">
    <g id="Group_9521" data-name="Group 9521" transform="translate(0 -0.001)">
      <g id="Group_9520" data-name="Group 9520" clip-path="url(#clip-path-2)">
        <path id="Path_16634" data-name="Path 16634" d="M368.493,390.513A61.422,61.422,0,0,0,335.93,358.7c-14.968-6.062-32.155-3.855-47.922-5.885-13.693-1.764-23.573-7.877-31.749-18.745-7.834-10.413-14.858-21.946-27.667-26.763-10.121-3.806-21.628-2.751-31.687,1.215-18.535,7.309-32.535,22.848-44.326,38.329-10.765,14.134-19.545,29.612-39.457,30.116s-38.892-10.86-58.953-7.848C27.657,373.1,5.576,395.171.949,421.448c-4.336,24.627,6.545,48.512,25.239,62.546H347.512c23.556-24.989,35.917-59.51,20.981-93.481" transform="translate(0 -226.124)" fill="#f4e5d4"/>
        <path id="Path_16635" data-name="Path 16635" d="M274.483,668.018h.884a67.8,67.8,0,0,0,14-24.022c4.948-14.709,4.739-30.146-.587-43.468-2.692-6.732-6.579-13.006-10.338-19.074-3.813-6.153-7.754-12.517-10.43-19.335a43.148,43.148,0,0,1-2.415-8.935c-.221-.029-.444-.053-.665-.08a43.737,43.737,0,0,0,2.478,9.251c2.7,6.873,6.654,13.262,10.482,19.44,3.744,6.044,7.616,12.294,10.287,18.973,5.27,13.179,5.474,28.458.575,43.022a67.065,67.065,0,0,1-14.276,24.228" transform="translate(-196.461 -410.148)" fill="#fff"/>
        <path id="Path_16636" data-name="Path 16636" d="M688.344,470.225c6.621,1.411,13,2.676,19.171,3.472.106-.2.209-.409.313-.613-6.221-.791-12.661-2.066-19.349-3.491-10.183-2.17-21.2-4.518-32.136-4.518a57.041,57.041,0,0,0-19.979,3.3,40.734,40.734,0,0,0-7.07,3.437c-5.848-2.493-11.728-5.214-17.553-8.2,4.227-3.184,8.5-6.3,12.814-9.316,32.044-22.375,61.616-35.06,90.186-38.661-.057-.209-.117-.419-.177-.628-28.646,3.63-58.284,16.347-90.379,38.758-4.408,3.079-8.769,6.265-13.082,9.518a216.6,216.6,0,0,1-19.286-11.207,167.981,167.981,0,0,1-36.676-32.188c45.734-5.131,92.3-11.6,130.321-37.009,1.444-.965,3.044-2.1,4.7-3.394-.184-.13-.369-.259-.553-.387-1.588,1.23-3.12,2.316-4.506,3.243-38.014,25.407-84.663,31.822-130.456,36.952a125.678,125.678,0,0,1-20.969-35.652c-8.066-21.367-7.64-42.334,1.168-57.527.383-.66.786-1.309,1.2-1.952-.368.169-.732.344-1.1.519q-.34.551-.665,1.109c-8.906,15.362-9.349,36.531-1.214,58.08a126.165,126.165,0,0,0,20.807,35.509q-3.977.445-7.946.881c-9.536,1.052-19.4,2.141-28.972,3.373-3.5.45-7.049.975-10.586,1.632-7.581-16-15.909-31.61-26.674-45-.154.154-.311.3-.466.454,10.673,13.285,18.949,28.779,26.484,44.667-15.425,2.942-30.4,8.472-38.4,21.344-7.469,12.021-7.462,28.637.02,49.388q.388,1.076.8,2.128h.692c-.3-.768-.591-1.546-.88-2.347-7.412-20.555-7.438-36.983-.079-48.827,7.9-12.719,22.8-18.175,38.138-21.081,2.676,5.661,5.262,11.369,7.831,17.042l.279.617c8.924,19.7,18.153,38.711,30.239,54.6h.806c-12.195-15.915-21.477-35.041-30.456-54.863l-.279-.617c-2.548-5.625-5.112-11.284-7.764-16.9,3.468-.641,6.954-1.155,10.383-1.6,9.569-1.232,19.426-2.32,28.96-3.372q4.176-.461,8.367-.928a168.4,168.4,0,0,0,37.091,32.641,217.006,217.006,0,0,0,19.069,11.1c-10.991,8.313-21.683,17.06-32.122,25.6q-5.422,4.436-10.956,8.932h1.025q5.214-4.23,10.34-8.432c10.513-8.6,21.28-17.409,32.35-25.772,5.792,2.98,11.639,5.7,17.456,8.185a48.161,48.161,0,0,0-18.366,22.417c-.491,1.191-.92,2.395-1.317,3.6h.68c.375-1.125.776-2.246,1.234-3.356a47.426,47.426,0,0,1,18.492-22.354,426.931,426.931,0,0,0,45.976,16.1l.517.153c5.787,1.711,11.706,3.465,16.942,6.281.146-.167.293-.333.439-.5-5.321-2.887-11.327-4.665-17.2-6.4l-.517-.153a427.821,427.821,0,0,1-45.479-15.894,40.032,40.032,0,0,1,6.561-3.143c16.765-6.212,35.355-2.251,51.756,1.244" transform="translate(-342.385 -240.378)" fill="#fff"/>
        <path id="Path_16637" data-name="Path 16637" d="M57.3,661.7a51.767,51.767,0,0,1-3.494,34.613,59.587,59.587,0,0,1-14.035,18.127c.118.183.238.365.357.546A60.251,60.251,0,0,0,54.388,696.6a52.422,52.422,0,0,0,3.541-35.052,44.491,44.491,0,0,0-13.067-22.73q-.21.247-.417.5A43.858,43.858,0,0,1,57.3,661.7" transform="translate(-29.493 -473.706)" fill="#fff"/>
        <path id="Path_16638" data-name="Path 16638" d="M556.795,140.059c5.629,5.752,8.152,15.442,5.048,24.376-3.005,8.651-9.593,15.816-17.508,20.423-6.368,3.706-14.675,5.751-20.938,1.87-4.68-2.9-7.107-8.591-7.242-14.1s1.716-10.869,4-15.877c3.225-7.06,7.566-13.905,14.031-18.2,8.913-5.918,17.194-4.028,22.6,1.5" transform="translate(-382.744 -100.05)" fill="#f4e5d4"/>
        <path id="Path_16639" data-name="Path 16639" d="M966,164.777a48.4,48.4,0,0,0-10.7-18.594q-7.674-8.49-20.934-14.028t-33.693-5.543a131.82,131.82,0,0,0-33.225,4.4,98.739,98.739,0,0,0-29.4,12.562l10.815,29.693-5.8,4.7,8.407,2.471a123.456,123.456,0,0,1,22.68-9.462,78.415,78.415,0,0,1,21.724-2.931q11.5,0,17.408,5.543a17.691,17.691,0,0,1,5.907,13.38,25.676,25.676,0,0,1-6.063,16.8q-6.083,7.343-13.425,14.845-5.1,5.209-9.9,10.757a77.235,77.235,0,0,0-8.465,11.915,64.785,64.785,0,0,0-5.907,13.7,56.221,56.221,0,0,0-2.236,16.47c0,1.965.042,4.3.156,7.019.019.5.046.99.076,1.473h-7.947l8.673,5.865h42.169a28.012,28.012,0,0,1-.323-4.566v-3.919a28.322,28.322,0,0,1,2.236-10.927,56.536,56.536,0,0,1,5.595-10.28,75.939,75.939,0,0,1,7.508-9.292q4.149-4.412,7.987-8.326,5.1-5.209,10.534-11.086a87.145,87.145,0,0,0,9.588-12.393,69.64,69.64,0,0,0,6.863-14.2,49.981,49.981,0,0,0,2.725-16.8A67.182,67.182,0,0,0,966,164.777" transform="translate(-621.45 -93.887)" fill="#bc8e4a"/>
        <path id="Path_16640" data-name="Path 16640" d="M863.289,163.851a79.039,79.039,0,0,0-21.469,2.836,123.474,123.474,0,0,0-22.414,9.157l-13.268-35.672a98.669,98.669,0,0,1,29.053-12.158,132.863,132.863,0,0,1,32.835-4.255q20.194,0,33.3,5.365T922.013,142.7a46.615,46.615,0,0,1,10.575,18,63.782,63.782,0,0,1,3,18.622,47.464,47.464,0,0,1-2.693,16.258,66.806,66.806,0,0,1-6.783,13.741,84.593,84.593,0,0,1-9.475,11.993Q911.273,227,906.227,232.04q-3.792,3.792-7.893,8.057a73.825,73.825,0,0,0-7.42,8.993,54.341,54.341,0,0,0-5.529,9.948,26.923,26.923,0,0,0-2.21,10.575v3.792a26.567,26.567,0,0,0,.319,4.419H841.82a44.167,44.167,0,0,1-.791-7.1c-.113-2.631-.154-4.892-.154-6.793a53.357,53.357,0,0,1,2.21-15.94,62.027,62.027,0,0,1,5.838-13.257,74.772,74.772,0,0,1,8.366-11.531q4.733-5.364,9.784-10.411,7.261-7.261,13.268-14.368a24.537,24.537,0,0,0,5.991-16.258,16.963,16.963,0,0,0-5.837-12.949q-5.843-5.364-17.2-5.365" transform="translate(-597.783 -91.772)" fill="#f0bb62"/>
        <path id="Path_16641" data-name="Path 16641" d="M1013.89,833.345q0,11.4-7.383,17.607a25.558,25.558,0,0,1-33.4,0q-7.371-6.208-7.375-17.607t7.375-17.608a25.66,25.66,0,0,1,27.658-3.331,23.711,23.711,0,0,1,13.128,20.939" transform="translate(-716.126 -600.496)" fill="#bc8e4a"/>
        <path id="Path_16642" data-name="Path 16642" d="M981.974,832.565q0,11.4-7.383,17.607a25.558,25.558,0,0,1-33.4,0q-7.371-6.208-7.375-17.607t7.375-17.607a25.558,25.558,0,0,1,33.4,0q7.384,6.22,7.383,17.607" transform="translate(-692.459 -599.717)" fill="#f0bb62"/>
        <path id="Path_16643" data-name="Path 16643" d="M335.522,211.433a6.759,6.759,0,1,1-9.395-1.761,6.759,6.759,0,0,1,9.395,1.761" transform="translate(-239.655 -154.604)" fill="#1c7d88"/>
        <path id="Path_16644" data-name="Path 16644" d="M365.751,275.645a3.829,3.829,0,1,1-3.062-4.442,3.815,3.815,0,0,1,3.063,4.442" transform="translate(-265.59 -201.058)" fill="#1c7d88"/>
        <path id="Path_16645" data-name="Path 16645" d="M234.6,31.517A26.611,26.611,0,1,1,213.348.458,26.611,26.611,0,0,1,234.6,31.517" transform="translate(-134.834 0.002)" fill="#1c7d88"/>
        <path id="Path_16646" data-name="Path 16646" d="M239.007,93.359a3.353,3.353,0,1,1-3.353-3.353,3.353,3.353,0,0,1,3.353,3.353" transform="translate(-172.26 -66.743)" fill="#fff"/>
        <path id="Path_16647" data-name="Path 16647" d="M278.542,93.359a3.353,3.353,0,1,1-3.353-3.353,3.353,3.353,0,0,1,3.353,3.353" transform="translate(-201.577 -66.743)" fill="#fff"/>
        <path id="Path_16648" data-name="Path 16648" d="M318.076,93.359a3.353,3.353,0,1,1-3.353-3.353,3.353,3.353,0,0,1,3.353,3.353" transform="translate(-230.893 -66.743)" fill="#fff"/>
        <path id="Path_16649" data-name="Path 16649" d="M210.58,916.419,213.066,926a5.493,5.493,0,0,0,5.739,4.007c8.153-.554,25.092-2.551,34.814-9.717l-2.764-13.815c-13.367-.755-25.868-.012-36.692,3.632a5.294,5.294,0,0,0-3.583,6.307" transform="translate(-156.031 -671.993)" fill="#002f35"/>
        <path id="Path_16650" data-name="Path 16650" d="M260.824,939.071a.323.323,0,0,1-.311-.236l-3.338-11.954a.323.323,0,1,1,.622-.174l3.339,11.954a.323.323,0,0,1-.311.41" transform="translate(-190.696 -687.015)" fill="#fff"/>
        <path id="Path_16651" data-name="Path 16651" d="M288.741,932.82a.323.323,0,0,1-.311-.236l-3.338-11.954a.323.323,0,1,1,.622-.174l3.339,11.954a.323.323,0,0,1-.224.4.327.327,0,0,1-.087.012" transform="translate(-211.398 -682.379)" fill="#fff"/>
        <path id="Path_16652" data-name="Path 16652" d="M242.533,739.552l-31.068,9.221,23.072,31.613,33.124,2.635L313.349,763.7l-17.362-26.125Z" transform="translate(-156.81 -546.941)" fill="#f0bb62"/>
        <path id="Path_16653" data-name="Path 16653" d="M373.247,750.427c68.227-20.2,79.192,40.1-27.261,51.079a51.508,51.508,0,0,1-9.9-17.709L392.3,757.818Z" transform="translate(-249.222 -553.426)" fill="#f0bb62"/>
        <path id="Path_16654" data-name="Path 16654" d="M441.686,920.69a29.517,29.517,0,0,1-6.249-3.041l-10.965,3.439,2.513,11.928,11.391,2.314c3.47-6.347,3.672-11.558,3.31-14.641" transform="translate(-314.763 -680.473)" fill="#f9b384"/>
        <path id="Path_16655" data-name="Path 16655" d="M335.633,810.145l-.487-.838c11.728-6.816,41.768-23.19,67.362-28.019l.18.953c-25.446,4.8-55.37,21.114-67.055,27.9" transform="translate(-248.524 -579.356)" fill="#e49b31"/>
        <path id="Path_16656" data-name="Path 16656" d="M186.662,740.706c-63.506-12.075-79.954,48.956,26.5,59.933a38.672,38.672,0,0,0,8.452-15.368,484.68,484.68,0,0,0-54.673-31.247Z" transform="translate(-100.939 -548.096)" fill="#f0bb62"/>
        <path id="Path_16657" data-name="Path 16657" d="M290.011,813.014c-3.021-1.923-6.169-3.956-9.5-6.107-16.729-10.8-35.691-23.044-51.8-30.025l.385-.889c16.183,7.013,35.18,19.278,51.941,30.1,3.331,2.151,6.478,4.182,9.5,6.1Z" transform="translate(-169.597 -575.429)" fill="#e49b31"/>
        <path id="Path_16658" data-name="Path 16658" d="M148.958,836.136l-.848-.468a17.818,17.818,0,0,1,11.348-8.652l.258.934a16.67,16.67,0,0,0-10.759,8.186" transform="translate(-109.829 -613.265)" fill="#e49b31"/>
        <path id="Path_16659" data-name="Path 16659" d="M633.358,821.92a16.672,16.672,0,0,0-10.759-8.186l.259-.934a17.82,17.82,0,0,1,11.348,8.652Z" transform="translate(-461.682 -602.723)" fill="#e49b31"/>
        <path id="Path_16660" data-name="Path 16660" d="M409.153,922.757l-.708-.661a36.3,36.3,0,0,0,9.539-17.559l.949.2a37.243,37.243,0,0,1-9.779,18.022" transform="translate(-302.878 -670.749)" fill="#e49b31"/>
        <path id="Path_16661" data-name="Path 16661" d="M513.249,911.189c-8.137-5.027-23.91,3.659-27.87,4.1a9.531,9.531,0,0,1-3.8-.545c.363,3.083.16,8.295-3.31,14.642l1.935.393s13.376,4.9,27.565,2.049c13.1-2.635,11.879-16.685,5.483-20.637" transform="translate(-354.654 -674.525)" fill="#002f35"/>
        <path id="Path_16662" data-name="Path 16662" d="M565.607,938.961a.327.327,0,0,1-.1-.015.323.323,0,0,1-.211-.405c.966-3.061,1.388-9.083-1.411-13.126a.323.323,0,0,1,.531-.368c2.932,4.235,2.5,10.507,1.5,13.689a.323.323,0,0,1-.308.226" transform="translate(-418.102 -685.855)" fill="#fff"/>
        <path id="Path_16663" data-name="Path 16663" d="M540.919,943.65a.327.327,0,0,1-.1-.015.323.323,0,0,1-.211-.405c.966-3.061,1.388-9.083-1.411-13.126a.323.323,0,0,1,.531-.368c2.932,4.235,2.5,10.507,1.5,13.689a.323.323,0,0,1-.308.226" transform="translate(-399.795 -689.332)" fill="#fff"/>
        <path id="Path_16664" data-name="Path 16664" d="M234.011,358.786s15.994-13.6,15.4-16.185c-.423-1.847-4.954.861-4.954.861s6.354-7.538,6.031-8.454c-.577-1.636-4.972,1.413-4.972,1.413s2.97-4.275,1.55-4.972-4.516,1.938-4.516,1.938,1.808-2.373.959-3S239,332.33,239,332.33s1.316-2.993-1.479-1.858-22.391,19.118-22.391,19.118Z" transform="translate(-159.524 -244.867)" fill="#f9b384"/>
        <path id="Path_16665" data-name="Path 16665" d="M292.2,364.673a.322.322,0,0,1-.218-.085A14.671,14.671,0,0,0,285,360.54a.323.323,0,0,1,.19-.617,15.185,15.185,0,0,1,7.231,4.189.323.323,0,0,1-.218.562" transform="translate(-211.166 -266.885)" fill="#e28b6d"/>
        <path id="Path_16666" data-name="Path 16666" d="M293.945,392.434a.331.331,0,0,1-.045,0,.323.323,0,0,1-.275-.365c.314-2.249,1.022-3.654,2.164-4.3a4.193,4.193,0,0,1,3.776.167.323.323,0,0,1-.256.593,3.6,3.6,0,0,0-3.2-.2c-.941.529-1.561,1.815-1.841,3.822a.323.323,0,0,1-.319.278" transform="translate(-217.732 -287.269)" fill="#e28b6d"/>
        <path id="Path_16667" data-name="Path 16667" d="M291.028,341.577a.323.323,0,0,1-.221-.558l4.013-3.783a.323.323,0,1,1,.443.47l-4.013,3.783a.32.32,0,0,1-.222.088" transform="translate(-215.569 -250.008)" fill="#e28b6d"/>
        <path id="Path_16668" data-name="Path 16668" d="M305.4,345.905a.323.323,0,0,1-.233-.547l3.855-4.016a.323.323,0,0,1,.466.447l-3.855,4.016a.322.322,0,0,1-.233.1" transform="translate(-226.229 -253.044)" fill="#e28b6d"/>
        <path id="Path_16669" data-name="Path 16669" d="M320.09,356.871a.323.323,0,0,1-.236-.544l3.025-3.244a.323.323,0,0,1,.473.441l-3.025,3.244a.323.323,0,0,1-.236.1" transform="translate(-237.12 -261.749)" fill="#e28b6d"/>
        <path id="Path_16670" data-name="Path 16670" d="M335.643,571.5l-58.477,2.261L270.7,520.451s19.577-18.568,27.108-25.406l12.715-.652c39.449,17.931,32.989,40.327,25.115,77.1" transform="translate(-200.738 -366.612)" fill="#1c7d88"/>
        <path id="Path_16671" data-name="Path 16671" d="M424.784,494.393s45.133,3.86,59.361,34.781c13.922,30.257-43.292,41.031-43.292,41.031Z" transform="translate(-314.994 -366.612)" fill="#1c7d88"/>
        <path id="Path_16672" data-name="Path 16672" d="M114.424,424.589l18.65-22.7-17.441-10.57a227.442,227.442,0,0,0-33.266,29.491,24.627,24.627,0,0,0-5.723,9.892,21.29,21.29,0,0,0-.547,9.288,17.931,17.931,0,0,0,15.846,15.012c7.105.832,34.246-1.292,56.215-7.754l6.462-24.939c-3.32-1.884-28-2.211-40.2,2.276" transform="translate(-56.223 -290.181)" fill="#1c7d88"/>
        <g id="Group_9516" data-name="Group 9516" transform="translate(29.128 108.649)" opacity="0.8">
          <g id="Group_9515" data-name="Group 9515">
            <g id="Group_9514" data-name="Group 9514" clip-path="url(#clip-path-3)">
              <path id="Path_16673" data-name="Path 16673" d="M507.112,516.325l.292-.067c-.2-.121-.409-.238-.613-.357a97.767,97.767,0,0,1-10.084,1.946c-2.022.244-8.776.69-10.75-3.811a7.051,7.051,0,0,1,.872-6.477l-.484-.139a7.48,7.48,0,0,0-.831,6.81c2.107,4.807,9.146,4.351,11.252,4.1a99.967,99.967,0,0,0,10.347-2" transform="translate(-388.786 -484.921)" fill="#fff"/>
              <path id="Path_16674" data-name="Path 16674" d="M610.192,672.475c-2.156-.833-4.384-1.694-6.725-1.473-4.107.388-7.622,4.45-7.835,9.054a14.2,14.2,0,0,0,3.34,9.324l.412-.26a13.737,13.737,0,0,1-3.268-9.041c.2-4.373,3.521-8.228,7.4-8.6,2.227-.206,4.3.593,6.505,1.443.786.3,1.584.609,2.4.869.042-.156.082-.313.12-.471-.791-.254-1.572-.553-2.341-.85" transform="translate(-470.803 -606.196)" fill="#fff"/>
              <path id="Path_16675" data-name="Path 16675" d="M146.672,610.468c-2.818-2.33-7.2-2.953-12.01-1.709a20.724,20.724,0,0,0-10.5,6.217c.166.054.328.114.5.163a20.326,20.326,0,0,1,10.124-5.911c4.661-1.207,8.883-.617,11.58,1.613a10.519,10.519,0,0,1,2.847,3.922l.5-.058a11.08,11.08,0,0,0-3.04-4.237" transform="translate(-121.199 -559.601)" fill="#fff"/>
              <path id="Path_16676" data-name="Path 16676" d="M112.7,439.182a58.465,58.465,0,0,0,15.184-5.892A16.586,16.586,0,0,0,133.131,429a7.367,7.367,0,0,0,1.348-6.56,5.126,5.126,0,0,0-1.315-2.074l-.373.306a4.679,4.679,0,0,1,1.227,1.919,6.884,6.884,0,0,1-1.278,6.121,16.154,16.154,0,0,1-5.1,4.157,57.26,57.26,0,0,1-14.311,5.657q-.317.326-.632.654" transform="translate(-112.698 -420.367)" fill="#fff"/>
            </g>
          </g>
        </g>
        <path id="Path_16677" data-name="Path 16677" d="M393.946,446.189l-.008.827-.131,12.853-.016,1.393a8,8,0,0,1-16.007-.008l-.156-15.884Z" transform="translate(-280.026 -330.259)" fill="#f9b384"/>
        <path id="Path_16678" data-name="Path 16678" d="M411.424,451.74l-.131,12.853c-7.144-2.908-10.084-10.641-10.084-10.641Z" transform="translate(-297.512 -334.983)" fill="#002f35"/>
        <path id="Path_16679" data-name="Path 16679" d="M392.028,361.726c2.56,3.072,10.035,20.48,2.458,26.419-8.527,6.683-21.5-4.3-21.5-4.3l-1.741-20.275L382.5,360.6Z" transform="translate(-275.29 -267.399)" fill="#f9b384"/>
        <path id="Path_16680" data-name="Path 16680" d="M312.864,360.638s-24.985,13.031-4.613,50.593a10.116,10.116,0,1,0,17.814-9.577c-3.332-5.92-6.549-13.543-5.176-19.215Z" transform="translate(-222.651 -267.427)" fill="#002f35"/>
        <path id="Path_16681" data-name="Path 16681" d="M345.535,365.113a6.758,6.758,0,1,1-6.758-6.759,6.758,6.758,0,0,1,6.758,6.759" transform="translate(-246.205 -265.733)" fill="#fbc343"/>
        <path id="Path_16682" data-name="Path 16682" d="M354.507,350.731c-.73-4.216-1.175-7.108,3.086-9.281,0,0,15.019,2.731,17.886-2.935s-1.5-14.609-10.65-8.4c-23.415-4.574-26.556,17.34-19.456,24.644l7.008-1.075a2.551,2.551,0,0,0,2.126-2.955" transform="translate(-253.621 -243.231)" fill="#002f35"/>
        <path id="Path_16683" data-name="Path 16683" d="M433.459,413.1a1,1,0,1,1-1-1,1,1,0,0,1,1,1" transform="translate(-319.946 -305.592)" fill="#002f35"/>
        <path id="Path_16684" data-name="Path 16684" d="M459.608,400.226a1,1,0,1,1-1-1,1,1,0,0,1,1,1" transform="translate(-339.337 -296.043)" fill="#002f35"/>
        <path id="Path_16685" data-name="Path 16685" d="M452.554,414.629a.283.283,0,0,1-.2-.477c.4-.422.839-1.014.655-1.444-.191-.446-1-.639-1.371-.639-.8,0-1.179-1.417-1.248-1.7a.283.283,0,1,1,.549-.133c.146.6.475,1.269.7,1.269.381,0,1.547.18,1.891.981.246.572-.012,1.264-.764,2.056a.281.281,0,0,1-.2.088" transform="translate(-333.972 -304.045)" fill="#002f35"/>
        <path id="Path_16686" data-name="Path 16686" d="M446.435,438.952a.283.283,0,0,1-.158-.048,3.778,3.778,0,0,0-3.8-.194.283.283,0,0,1-.282-.491,4.3,4.3,0,0,1,4.4.216.283.283,0,0,1-.158.517" transform="translate(-327.802 -324.579)" fill="#002f35"/>
        <path id="Path_16687" data-name="Path 16687" d="M421.421,397.9c.568,1.069-.422,1.284-1.582,1.9s-2.347.842-2.618.332.449-1.423,1.609-2.039,2.151-1.02,2.59-.193" transform="translate(-309.344 -294.709)" fill="#002f35"/>
        <path id="Path_16688" data-name="Path 16688" d="M449.914,387.613c.25.954.961.536,2,.265s1.871-.791,1.752-1.246-1.055-.6-2.09-.334-1.852.576-1.659,1.314" transform="translate(-333.608 -286.355)" fill="#002f35"/>
        <g id="Group_9519" data-name="Group 9519" transform="translate(104.962 109.227)" opacity="0.4">
          <g id="Group_9518" data-name="Group 9518">
            <g id="Group_9517" data-name="Group 9517" clip-path="url(#clip-path-4)">
              <path id="Path_16689" data-name="Path 16689" d="M411.994,425.547a2.944,2.944,0,1,1-2.944-2.944,2.944,2.944,0,0,1,2.944,2.944" transform="translate(-406.106 -422.603)" fill="#eb5d60"/>
            </g>
          </g>
        </g>
        <path id="Path_16690" data-name="Path 16690" d="M364.235,418.834a4.02,4.02,0,1,1-6.023.388,4.285,4.285,0,0,1,6.023-.388" transform="translate(-265.073 -309.809)" fill="#f9b384"/>
        <path id="Path_16691" data-name="Path 16691" d="M370.636,430.317a.283.283,0,0,1-.283-.283,2.477,2.477,0,0,0-1.088-2.064,2,2,0,0,0-1.858-.247.283.283,0,1,1-.213-.523,2.558,2.558,0,0,1,2.387.3,3.041,3.041,0,0,1,1.338,2.533.283.283,0,0,1-.283.283" transform="translate(-272.158 -316.658)" fill="#002f35"/>
        <rect id="Rectangle_18096" data-name="Rectangle 18096" width="15.028" height="0.646" transform="matrix(0.679, -0.734, 0.734, 0.679, 47.761, 145.223)" fill="#002f35"/>
        <path id="Path_16692" data-name="Path 16692" d="M501.778,663.2l-.188-.618c7.427-2.263,14.633-4.971,21.165-13.139l.5.4c-6.647,8.312-13.954,11.06-21.481,13.353" transform="translate(-371.949 -481.585)" fill="#002f35"/>
        <path id="Path_16693" data-name="Path 16693" d="M326.741,605.854H263.568a4.292,4.292,0,0,0-4.113,4.45v45.1a4.292,4.292,0,0,0,4.113,4.45h63.173a4.292,4.292,0,0,0,4.114-4.45V610.3a4.292,4.292,0,0,0-4.114-4.45" transform="translate(-192.396 -449.264)" fill="#d3dfff"/>
        <path id="Path_16694" data-name="Path 16694" d="M386.393,695.588a.453.453,0,0,1,.434.47v4.762a.453.453,0,0,1-.434.47h-6.67a.453.453,0,0,1-.434-.47v-4.762a.453.453,0,0,1,.434-.47Zm0-1.292h-6.67A1.746,1.746,0,0,0,378,696.058v4.762a1.746,1.746,0,0,0,1.727,1.762h6.67a1.746,1.746,0,0,0,1.727-1.762v-4.762a1.746,1.746,0,0,0-1.727-1.762" transform="translate(-280.3 -514.848)" fill="#1f3c88"/>
        <path id="Path_16695" data-name="Path 16695" d="M420.924,997.016H104.871a2.194,2.194,0,1,1,0-4.331H420.924a2.194,2.194,0,1,1,0,4.331" transform="translate(-75.878 -736.115)" fill="#f0bb62"/>
      </g>
    </g>
  </g>
</svg>
