<svg xmlns="http://www.w3.org/2000/svg" width="233" height="299" viewBox="0 0 233 299">
  <g id="splesh_screen-8-10-23" transform="translate(0 0)">
    <path id="Path_1024" data-name="Path 1024" d="M81.533,771.494a5.19,5.19,0,0,1-.111.588q-.111.509-.23,1.025a5.394,5.394,0,0,1-.167.628,1.373,1.373,0,0,1-.175.389.424.424,0,0,1-.381.167,1.068,1.068,0,0,1-.381-.079,11.263,11.263,0,0,0-1.216-.342,5.848,5.848,0,0,0-1.263-.135,5.788,5.788,0,0,0-1.581.223,2.88,2.88,0,0,0-1.311.762,2.056,2.056,0,0,0-.524,1.494,3.084,3.084,0,0,0,.6,1.963,5.33,5.33,0,0,0,1.549,1.319q.945.548,2.01,1.081a12.533,12.533,0,0,1,2.01,1.255,5.387,5.387,0,0,1,2.153,4.632,5.858,5.858,0,0,1-1.112,3.75,6.211,6.211,0,0,1-2.924,2.018,11.959,11.959,0,0,1-3.893.619q-.62,0-1.47-.072t-1.684-.222a7.657,7.657,0,0,1-1.406-.373,1.153,1.153,0,0,1-.318-.19.441.441,0,0,1-.127-.35,4.721,4.721,0,0,1,.127-.628q.127-.533.27-1.073t.175-.667a1.446,1.446,0,0,1,.183-.365.432.432,0,0,1,.373-.143.939.939,0,0,1,.3.048q.778.222,1.581.381a8.278,8.278,0,0,0,1.613.159,6.691,6.691,0,0,0,1.931-.278,3.239,3.239,0,0,0,1.526-.945,2.645,2.645,0,0,0,.6-1.827,3.378,3.378,0,0,0-.62-2.121,5.234,5.234,0,0,0-1.589-1.351q-.969-.548-2.058-1.049a13.68,13.68,0,0,1-2.058-1.168,5.309,5.309,0,0,1-1.589-1.732,6.377,6.377,0,0,1,.381-6.173,5.783,5.783,0,0,1,2.638-1.9,10.067,10.067,0,0,1,3.512-.6,15.485,15.485,0,0,1,2.161.175,7.892,7.892,0,0,1,2.082.556.85.85,0,0,1,.3.2.506.506,0,0,1,.111.357" transform="translate(-45.079 -499.188)" fill="#002f35"/>
    <path id="Path_1025" data-name="Path 1025" d="M113.621,773.6a2.014,2.014,0,0,1,.652-1.5,2.13,2.13,0,0,1,1.525-.628,2.2,2.2,0,0,1,1.565.644,2.112,2.112,0,0,1,.032,3.067,2.1,2.1,0,0,1-1.533.644,2.164,2.164,0,0,1-1.573-.66,2.126,2.126,0,0,1-.667-1.565m.238,9.581v-3.512a.576.576,0,0,1,.652-.652h2.447a.576.576,0,0,1,.651.652q0,3.273.016,6.554t.016,6.555a.576.576,0,0,1-.652.651h-2.511a.576.576,0,0,1-.651-.651q0-2.4.016-4.8t.016-4.8" transform="translate(-73.608 -500.006)" fill="#002f35"/>
    <path id="Path_1026" data-name="Path 1026" d="M137.013,792.23a.581.581,0,0,1,.651.572q.048.318.08.635t.063.636a1.34,1.34,0,0,0,.032.183c.021.1.058.151.111.151a.2.2,0,0,0,.151-.1c.048-.063.082-.111.1-.143a5.443,5.443,0,0,1,2.32-1.764,7.754,7.754,0,0,1,2.876-.54,5.061,5.061,0,0,1,2.28.516,4.271,4.271,0,0,1,1.676,1.462,3.936,3.936,0,0,1,.636,2.248q0,2.464.056,4.942t.056,4.942a.583.583,0,0,1-.652.667h-2.495q-.6,0-.651-.651-.048-.683-.032-1.375t0-1.374q-.016-1.462-.016-2.908v-2.892a2.118,2.118,0,0,0-.651-1.692,2.555,2.555,0,0,0-1.732-.564,3.08,3.08,0,0,0-2.217.826,5.061,5.061,0,0,0-1.287,2.034,7.166,7.166,0,0,0-.421,2.368q0,1.4-.016,2.789t-.032,2.788a.576.576,0,0,1-.652.651h-2.495a.583.583,0,0,1-.651-.667q0-.89.024-1.772t.04-1.755q.048-3.718.048-7.436v-2.13a.576.576,0,0,1,.651-.651Z" transform="translate(-87.01 -513.219)" fill="#002f35"/>
    <path id="Path_1027" data-name="Path 1027" d="M187.924,812.189a7.613,7.613,0,0,1-5.8-2.479,2.221,2.221,0,0,1-.143-.191.394.394,0,0,1-.063-.223,1.1,1.1,0,0,1,.247-.508q.246-.35.54-.707t.405-.485a2.469,2.469,0,0,1,.223-.2.422.422,0,0,1,.27-.087.545.545,0,0,1,.23.047,1.474,1.474,0,0,1,.2.111,8.045,8.045,0,0,0,1.692.755,6.19,6.19,0,0,0,1.835.262,6.844,6.844,0,0,0,1.779-.238,3.3,3.3,0,0,0,1.494-.834,2.229,2.229,0,0,0,.6-1.66c0-.053,0-.185.008-.4s-.024-.318-.087-.318a.159.159,0,0,0-.119.064c-.037.042-.066.074-.087.1a5.363,5.363,0,0,1-4.02,1.7,5.592,5.592,0,0,1-3.4-1.049,6.892,6.892,0,0,1-2.2-2.709,8.181,8.181,0,0,1-.771-3.488v-.318a8.2,8.2,0,0,1,.445-2.638,8.623,8.623,0,0,1,1.279-2.431,6.547,6.547,0,0,1,2-1.78,5.144,5.144,0,0,1,2.6-.667,7.842,7.842,0,0,1,2.177.3,5.239,5.239,0,0,1,1.923,1.033.288.288,0,0,0,.207.1q.158,0,.175-.262a1.835,1.835,0,0,1,.111-.524.43.43,0,0,1,.461-.262H194.5a.576.576,0,0,1,.651.651q0,.779-.008,1.573t-.008,1.589q0,2.4.056,4.8t.056,4.815a5.888,5.888,0,0,1-1.041,3.479,6.919,6.919,0,0,1-2.709,2.28,8.142,8.142,0,0,1-3.575.8m.254-8.66a2.831,2.831,0,0,0,2.018-.763,4.752,4.752,0,0,0,1.207-1.827v-3.321a1.3,1.3,0,0,0-.111-.326,2.993,2.993,0,0,0-.143-.31,3.763,3.763,0,0,0-1.3-1.478,3.352,3.352,0,0,0-1.875-.54,3.028,3.028,0,0,0-1.923.6,3.589,3.589,0,0,0-1.136,1.533,5.32,5.32,0,0,0,.055,4.052,4.355,4.355,0,0,0,1.239,1.708,2.975,2.975,0,0,0,1.97.676" transform="translate(-117.28 -513.189)" fill="#002f35"/>
    <path id="Path_1028" data-name="Path 1028" d="M230.977,769.415a.576.576,0,0,1,.652-.651h2.511a.576.576,0,0,1,.651.651q0,2.7-.016,5.4t-.016,5.4q0,2.7.016,5.4t.016,5.4a.576.576,0,0,1-.651.652h-2.511a.576.576,0,0,1-.652-.652q0-2.7.016-5.4t.016-5.4q0-2.7-.016-5.4t-.016-5.4" transform="translate(-149.853 -498.253)" fill="#002f35"/>
    <path id="Path_1029" data-name="Path 1029" d="M256.835,806.877a8.457,8.457,0,0,1-4.044-.921,6.546,6.546,0,0,1-2.677-2.622,8.127,8.127,0,0,1-.953-4.036,8.309,8.309,0,0,1,.905-3.909,6.9,6.9,0,0,1,2.558-2.741,7.292,7.292,0,0,1,3.877-1.008,5.882,5.882,0,0,1,4.314,1.541,7.961,7.961,0,0,1,2.121,4.1.558.558,0,0,1,.016.159.487.487,0,0,1-.119.358.954.954,0,0,1-.31.2,9.162,9.162,0,0,1-1.144.445q-.6.19-1.176.413-1.668.62-3.352,1.216t-3.337,1.263q-.127.064-.127.159a.247.247,0,0,0,.032.111,4.037,4.037,0,0,0,1.748,1.7,5.25,5.25,0,0,0,2.383.556,5.364,5.364,0,0,0,1.867-.318,11.587,11.587,0,0,0,1.709-.794,2.028,2.028,0,0,1,.222-.111.563.563,0,0,1,.222-.048.434.434,0,0,1,.342.135,1.259,1.259,0,0,1,.2.31q.062.112.246.5t.349.779a1.827,1.827,0,0,1,.167.5.423.423,0,0,1-.1.286,1.416,1.416,0,0,1-.222.207,8.269,8.269,0,0,1-2.741,1.176,12.528,12.528,0,0,1-2.979.4m-3.988-7.738,3.209-1.112q1.6-.556,3.194-1.112a4.7,4.7,0,0,0-1.1-1.525,2.474,2.474,0,0,0-1.74-.652,3.05,3.05,0,0,0-2,.652,3.875,3.875,0,0,0-1.176,1.66,5.867,5.867,0,0,0-.381,2.089" transform="translate(-161.661 -513.073)" fill="#002f35"/>
    <path id="Path_1030" data-name="Path 1030" d="M321.061,770.568a.633.633,0,0,1,.6.429,4.5,4.5,0,0,1,.223.58q.1.31.206.6l.858,2.352q.778,2.161,1.525,4.346t1.557,4.33a1.079,1.079,0,0,0,.071.151c.037.069.076.1.119.1s.1-.034.127-.1a1.609,1.609,0,0,0,.064-.151q.238-.683.461-1.383t.445-1.383q.492-1.478.985-2.955t.985-2.939l.794-2.351q.1-.286.191-.6t.206-.58a.644.644,0,0,1,.62-.445h3.353a1.381,1.381,0,0,1,.477.087.369.369,0,0,1,.238.389,1.118,1.118,0,0,1-.111.429q-1.256,3.019-2.487,6.046t-2.439,6.078l-2.415,6.069q-.255.684-.517,1.359t-.548,1.342c-.043.1-.117.244-.223.445s-.233.3-.381.3-.276-.1-.381-.3-.18-.349-.223-.445q-.286-.667-.54-1.342t-.525-1.359l-2.145-5.4q-1.255-3.21-2.558-6.411t-2.638-6.38a1.136,1.136,0,0,1-.111-.445.355.355,0,0,1,.238-.381,1.456,1.456,0,0,1,.461-.08Z" transform="translate(-205.637 -499.422)" fill="#002f35"/>
    <path id="Path_1031" data-name="Path 1031" d="M381.682,806.877a8.457,8.457,0,0,1-4.044-.921,6.544,6.544,0,0,1-2.677-2.622,8.124,8.124,0,0,1-.954-4.036,8.306,8.306,0,0,1,.906-3.909,6.9,6.9,0,0,1,2.558-2.741,7.292,7.292,0,0,1,3.877-1.008,5.883,5.883,0,0,1,4.314,1.541,7.966,7.966,0,0,1,2.121,4.1.571.571,0,0,1,.016.159.487.487,0,0,1-.119.358.954.954,0,0,1-.31.2,9.157,9.157,0,0,1-1.144.445q-.6.19-1.176.413-1.668.62-3.353,1.216t-3.337,1.263q-.127.064-.127.159a.252.252,0,0,0,.032.111,4.036,4.036,0,0,0,1.748,1.7,5.249,5.249,0,0,0,2.383.556,5.365,5.365,0,0,0,1.867-.318,11.569,11.569,0,0,0,1.708-.794,2.069,2.069,0,0,1,.222-.111.56.56,0,0,1,.222-.048.433.433,0,0,1,.342.135,1.249,1.249,0,0,1,.2.31q.063.112.246.5t.35.779a1.826,1.826,0,0,1,.167.5.423.423,0,0,1-.1.286,1.4,1.4,0,0,1-.223.207,8.264,8.264,0,0,1-2.741,1.176,12.526,12.526,0,0,1-2.979.4m-3.988-7.738,3.21-1.112q1.6-.556,3.194-1.112a4.7,4.7,0,0,0-1.1-1.525,2.474,2.474,0,0,0-1.74-.652,3.052,3.052,0,0,0-2,.652,3.87,3.87,0,0,0-1.176,1.66,5.861,5.861,0,0,0-.381,2.089" transform="translate(-242.663 -513.073)" fill="#002f35"/>
    <path id="Path_1032" data-name="Path 1032" d="M423.117,792.23a.581.581,0,0,1,.651.572q.048.318.08.635t.063.636a1.334,1.334,0,0,0,.032.183c.021.1.058.151.112.151a.2.2,0,0,0,.151-.1c.048-.063.082-.111.1-.143a5.443,5.443,0,0,1,2.32-1.764,7.755,7.755,0,0,1,2.876-.54,5.061,5.061,0,0,1,2.28.516,4.271,4.271,0,0,1,1.676,1.462,3.936,3.936,0,0,1,.636,2.248q0,2.464.056,4.942t.056,4.942a.583.583,0,0,1-.651.667h-2.495q-.6,0-.652-.651-.048-.683-.032-1.375t0-1.374q-.016-1.462-.016-2.908v-2.892a2.119,2.119,0,0,0-.651-1.692,2.555,2.555,0,0,0-1.732-.564,3.08,3.08,0,0,0-2.217.826,5.063,5.063,0,0,0-1.287,2.034,7.168,7.168,0,0,0-.421,2.368q0,1.4-.016,2.789t-.032,2.788a.576.576,0,0,1-.652.651H420.86a.583.583,0,0,1-.651-.667q0-.89.024-1.772t.04-1.755q.048-3.718.048-7.436v-2.13a.576.576,0,0,1,.651-.651Z" transform="translate(-272.641 -513.219)" fill="#002f35"/>
    <path id="Path_1033" data-name="Path 1033" d="M473.5,791.977a6.265,6.265,0,0,1-3.639-1.017,6.408,6.408,0,0,1-2.24-2.717,9.616,9.616,0,0,1,.055-7.635,6.429,6.429,0,0,1,2.392-2.725,7.051,7.051,0,0,1,3.861-1,6.952,6.952,0,0,1,4.4,1.462.42.42,0,0,0,.222.111c.063,0,.1-.037.111-.111a1.372,1.372,0,0,0,.016-.159q0-1.493.008-2.971t.024-2.971q.016-.7,0-1.423t.032-1.406q.047-.651.651-.651h2.479a.583.583,0,0,1,.651.667q0,.874-.024,1.74t-.04,1.74q-.048,3.639-.048,7.309,0,3.654.048,7.309.015.874.04,1.74t.024,1.74a.583.583,0,0,1-.651.667h-2.51q-.588,0-.612-.445t-.04-.858a1.105,1.105,0,0,0-.016-.151c-.01-.069-.042-.1-.095-.1a.425.425,0,0,0-.223.111,8.328,8.328,0,0,1-2.288,1.295,7.4,7.4,0,0,1-2.59.453m1.16-3.511a4.712,4.712,0,0,0,2.463-.636,3.678,3.678,0,0,0,1.557-1.986q-.016-.556-.016-1.1v-1.081q0-.254.016-.556a2.948,2.948,0,0,0-.016-.54,1.274,1.274,0,0,0-.175-.461l-.238-.429a3.6,3.6,0,0,0-1.565-1.327,4.915,4.915,0,0,0-2.026-.437,3.681,3.681,0,0,0-2.105.6,4.015,4.015,0,0,0-1.383,1.589,4.792,4.792,0,0,0-.485,2.145,4.279,4.279,0,0,0,.517,2.058,4.225,4.225,0,0,0,1.422,1.557,3.618,3.618,0,0,0,2.034.6" transform="translate(-302.914 -498.253)" fill="#002f35"/>
    <path id="Path_1034" data-name="Path 1034" d="M518.255,799.419a8.093,8.093,0,0,1,.945-3.94,7.073,7.073,0,0,1,2.646-2.741,7.542,7.542,0,0,1,3.925-1.009,7.24,7.24,0,0,1,3.829.993,6.9,6.9,0,0,1,2.55,2.709,8.084,8.084,0,0,1,.914,3.861,8.232,8.232,0,0,1-.906,3.917,6.672,6.672,0,0,1-2.55,2.678,7.547,7.547,0,0,1-3.9.969,7.948,7.948,0,0,1-3.917-.929,6.576,6.576,0,0,1-2.606-2.6,7.9,7.9,0,0,1-.93-3.909m7.436-4.481a3.143,3.143,0,0,0-2.018.643,4.007,4.007,0,0,0-1.224,1.645,5.438,5.438,0,0,0-.413,2.1,4.713,4.713,0,0,0,.437,1.986,3.968,3.968,0,0,0,1.247,1.557,3.129,3.129,0,0,0,1.923.6,3.22,3.22,0,0,0,2.01-.612,3.78,3.78,0,0,0,1.207-1.581,5.407,5.407,0,0,0,0-4.107,3.915,3.915,0,0,0-1.2-1.6,3.078,3.078,0,0,0-1.97-.628" transform="translate(-336.257 -513.131)" fill="#002f35"/>
    <path id="Path_1035" data-name="Path 1035" d="M569.993,792.61a.577.577,0,0,1,.651.588l.159,1.811c0,.011.01.088.032.23s.058.215.111.215.109-.058.167-.175l.1-.206a5.668,5.668,0,0,1,1.589-1.922,3.85,3.85,0,0,1,2.367-.7,8.28,8.28,0,0,1,.85.056q.516.056.516.532a4.524,4.524,0,0,1-.1.747q-.1.509-.214,1.025t-.183.787a.946.946,0,0,1-.2.421.582.582,0,0,1-.452.151,2.024,2.024,0,0,1-.31-.023,2.055,2.055,0,0,0-.326-.024,3.012,3.012,0,0,0-2.113.786,4.915,4.915,0,0,0-1.287,1.93,6.4,6.4,0,0,0-.429,2.256v5.275a.576.576,0,0,1-.651.652h-2.463a.583.583,0,0,1-.651-.667q0-2.463.024-4.918t.024-4.9v-3.273a.576.576,0,0,1,.651-.651Z" transform="translate(-368.044 -513.599)" fill="#002f35"/>
    <path id="Path_1036" data-name="Path 1036" d="M143.48,620.013a23.147,23.147,0,0,1,8.743,1.582,13.567,13.567,0,0,1,6.215,4.894,14.7,14.7,0,0,1,2.3,8.564,17.319,17.319,0,0,1-1.631,7.6,13.829,13.829,0,0,1-5.22,5.677.335.335,0,0,0-.229.326,9.775,9.775,0,0,0,.865,1.533q.864,1.4,2.186,3.458t2.708,4.176q1.386,2.121,2.43,3.752t1.338,2.088q.163.261.326.571a1.418,1.418,0,0,1,.163.669.676.676,0,0,1-.6.718,4.877,4.877,0,0,1-.995.131h-6.492a1.364,1.364,0,0,1-1.109-.587,29.241,29.241,0,0,1-1.892-2.757q-.881-1.451-1.794-2.822-1.436-2.219-2.9-4.421t-2.871-4.453a.4.4,0,0,0-.359-.228h-5.84a.346.346,0,0,0-.392.392q0,2.251-.016,4.518t-.049,4.519q0,.946.049,2.3a12.625,12.625,0,0,1-.082,2.235,2.171,2.171,0,0,1-.343.979,1.2,1.2,0,0,1-.995.326h-5.644a1.2,1.2,0,0,1-1.338-1.37q0-1.761.065-3.54t.1-3.572q.1-7.438.1-14.909,0-7.079-.1-14.224-.033-1.7-.081-3.377t-.049-3.377a1.2,1.2,0,0,1,1.338-1.37Zm-5.057,22.641h6.59a6.938,6.938,0,0,0,7.275-7.308,7.684,7.684,0,0,0-1.892-5.416,6.825,6.825,0,0,0-5.285-2.055H138.39q.032,3.687.033,7.389Z" transform="translate(-84.363 -401.887)" fill="#002f35"/>
    <path id="Path_1037" data-name="Path 1037" d="M239.692,626.237a4.132,4.132,0,0,1,1.337-3.083,4.371,4.371,0,0,1,3.132-1.289,4.518,4.518,0,0,1,3.213,1.321,4.338,4.338,0,0,1,.065,6.3,4.3,4.3,0,0,1-3.148,1.321,4.443,4.443,0,0,1-3.23-1.354,4.364,4.364,0,0,1-1.37-3.213m.49,19.672V638.7a1.182,1.182,0,0,1,1.337-1.338h5.024a1.182,1.182,0,0,1,1.337,1.338q0,6.721.033,13.457t.032,13.458a1.182,1.182,0,0,1-1.337,1.338h-5.155a1.182,1.182,0,0,1-1.338-1.338q0-4.926.032-9.852t.033-9.853" transform="translate(-155.512 -403.086)" fill="#002f35"/>
    <path id="Path_1038" data-name="Path 1038" d="M291.96,663.971a12.864,12.864,0,0,1-7.471-2.088,13.158,13.158,0,0,1-4.6-5.579A19.741,19.741,0,0,1,280,640.628a13.19,13.19,0,0,1,4.91-5.6,14.475,14.475,0,0,1,7.928-2.055,14.271,14.271,0,0,1,9.037,3,.87.87,0,0,0,.457.228c.131,0,.206-.076.228-.228a2.7,2.7,0,0,0,.033-.326q0-3.066.016-6.1t.049-6.1q.032-1.435,0-2.92t.065-2.887q.1-1.337,1.337-1.337h5.089a1.2,1.2,0,0,1,1.337,1.37q0,1.794-.049,3.572t-.082,3.573q-.1,7.471-.1,15.007,0,7.5.1,15.007.032,1.794.082,3.572t.049,3.573a1.2,1.2,0,0,1-1.337,1.37H304q-1.208,0-1.256-.914t-.082-1.762a2.376,2.376,0,0,0-.033-.31c-.022-.141-.087-.212-.2-.212a.877.877,0,0,0-.457.228,17.118,17.118,0,0,1-4.7,2.659,15.207,15.207,0,0,1-5.318.93m2.382-7.21a9.673,9.673,0,0,0,5.057-1.305,7.552,7.552,0,0,0,3.2-4.077q-.033-1.142-.033-2.251v-2.218q0-.521.033-1.142a6.126,6.126,0,0,0-.033-1.109,2.615,2.615,0,0,0-.359-.946l-.49-.881a7.392,7.392,0,0,0-3.214-2.724,10.083,10.083,0,0,0-4.159-.9,7.559,7.559,0,0,0-4.323,1.24,8.249,8.249,0,0,0-2.838,3.262,9.837,9.837,0,0,0-.995,4.4,8.8,8.8,0,0,0,1.06,4.225,8.685,8.685,0,0,0,2.92,3.2,7.43,7.43,0,0,0,4.176,1.223" transform="translate(-180.606 -399.486)" fill="#002f35"/>
    <path id="Path_1039" data-name="Path 1039" d="M399.6,694.563a17.364,17.364,0,0,1-8.3-1.892,13.434,13.434,0,0,1-5.5-5.383A16.676,16.676,0,0,1,383.841,679a17.053,17.053,0,0,1,1.86-8.025,14.155,14.155,0,0,1,5.253-5.628,14.974,14.974,0,0,1,7.96-2.071q5.644,0,8.858,3.164a16.365,16.365,0,0,1,4.356,8.417,1.155,1.155,0,0,1,.033.326,1,1,0,0,1-.245.734,1.943,1.943,0,0,1-.636.408,18.813,18.813,0,0,1-2.349.914q-1.24.391-2.414.848-3.426,1.273-6.884,2.5t-6.851,2.594c-.174.087-.261.2-.261.326a.517.517,0,0,0,.065.228,8.289,8.289,0,0,0,3.589,3.491,10.784,10.784,0,0,0,4.894,1.142,11.026,11.026,0,0,0,3.833-.653,23.642,23.642,0,0,0,3.507-1.631,4.472,4.472,0,0,1,.457-.228,1.15,1.15,0,0,1,.456-.1.887.887,0,0,1,.7.277,2.551,2.551,0,0,1,.408.636q.13.229.506,1.028t.718,1.6a3.724,3.724,0,0,1,.342,1.027.869.869,0,0,1-.2.588,2.838,2.838,0,0,1-.456.424,16.964,16.964,0,0,1-5.628,2.414,25.729,25.729,0,0,1-6.117.816m-8.189-15.888,6.59-2.284q3.295-1.141,6.557-2.284a9.658,9.658,0,0,0-2.267-3.132,5.078,5.078,0,0,0-3.573-1.338,6.268,6.268,0,0,0-4.11,1.338,7.955,7.955,0,0,0-2.414,3.409,12.038,12.038,0,0,0-.783,4.29" transform="translate(-249.071 -429.914)" fill="#002f35"/>
    <path id="Path_1040" data-name="Path 1040" d="M484.512,665.268a1.185,1.185,0,0,1,1.337,1.207l.326,3.719c0,.022.021.179.065.473s.119.44.228.44.223-.119.343-.359l.212-.424a11.636,11.636,0,0,1,3.262-3.947,7.911,7.911,0,0,1,4.861-1.436,16.944,16.944,0,0,1,1.745.115q1.06.115,1.06,1.093a9.325,9.325,0,0,1-.2,1.534q-.2,1.044-.44,2.1t-.375,1.615a1.944,1.944,0,0,1-.408.865,1.2,1.2,0,0,1-.93.31,4.089,4.089,0,0,1-.636-.049,4.286,4.286,0,0,0-.669-.049,6.183,6.183,0,0,0-4.339,1.615,10.1,10.1,0,0,0-2.643,3.964,13.129,13.129,0,0,0-.881,4.633v10.831a1.182,1.182,0,0,1-1.337,1.338h-5.057a1.2,1.2,0,0,1-1.337-1.37q0-5.056.049-10.1t.049-10.065v-6.721a1.182,1.182,0,0,1,1.338-1.337Z" transform="translate(-310.606 -430.993)" fill="#002f35"/>
    <path id="Path_1041" data-name="Path 1041" d="M396.934,32.145c-5.409-5.586-4.682-13.237-4.524-14.614.96-8.333,7.167-12.873,8.7-13.918,1.018-.694,7.615-5.042,15.658-3.132,11.209,2.662,17,15.527,15.31,17.4-1.145,1.265-5.415-2.832-8.351-1.044-4.022,2.449,1.191,11.84-3.131,17.05-4.24,5.11-16.88,5.263-23.661-1.74" transform="translate(-254.578 0)" fill="#002f35"/>
    <path id="Path_1042" data-name="Path 1042" d="M225.266,143.285c.832-1.557,3.416-2.479,5.488-3.014q-4.866-.93-9.736-1.856a30.74,30.74,0,0,0-10.343,3.014,38.953,38.953,0,0,0-9.213,6.265l-15.81.232c-9.276-3.719-12.7-9.1-14.079-13.456-3.3-10.427,3.364-20.612-2.1-27.37-3.3-4.092-9.279-4.737-13.809-4.641q-6.4,6.149-12.79,12.294c-2.886,3-26.676,28.222-22.572,47.556a19.182,19.182,0,0,0,3.012,6.955H62.161a27.451,27.451,0,0,0-7.914,21.809H74.979a4.83,4.83,0,0,1-2.244,4.173c-4.75,1.69-21.255,8.086-34.025,23.662a64.149,64.149,0,0,0-9.992,16.7q72.535.232,145.07.461A61.315,61.315,0,0,1,195.261,214.5c10.628-6.283,19.6-7.061,22.958-7.188a153.738,153.738,0,0,0-.786-32.244,130.732,130.732,0,0,0-3.7-17.978h.323a4.7,4.7,0,0,0,3.174,1.972,8.481,8.481,0,0,0,4.1-.465c4.54-5.039,5.393-8.086,5.238-9.977-.2-2.5-2.229-3.6-1.3-5.335M81,227.723H42.658l2.689-2.9H83.69Zm4.684-5.568H47.345l2.686-2.9H88.377Zm4.687-5.568H52.032l2.686-2.9H93.064Zm58.51-13.22a63.42,63.42,0,0,0-6.738,21.573h-7.591q-5.151-2.493-10.308-4.99,1.943-6.783,3.883-13.569c2.654-2.138,6.7-5.261,11.828-8.7,6.843-4.582,14.349-9.667,15.866-8.35,1.348,1.166-3.026,6.385-6.941,14.034m37.462,5.1A72.105,72.105,0,0,1,163.1,224.941H157.81a41.148,41.148,0,0,1,1.141-7.888c1.892-7.832,5.312-13.357,7.784-17.629,1.2-2.067,11.077-19.151,8.051-28.881-2.911-9.368-17.126-9.829-22.481-9.741a39.931,39.931,0,0,0,4.606-6.962,29.666,29.666,0,0,0,3.346-11.132c4.55,11.178,11.225,14.224,16.424,14.96,10.947,1.553,16.7-2.233,22.045,1.395,9.385,6.36,4.01,31.751-12.38,49.408" transform="translate(-18.605 -66.371)" fill="#002f35"/>
    <path id="Path_1043" data-name="Path 1043" d="M542.583,154.528h0a1.654,1.654,0,0,1-1.655-1.654V128.51a1.655,1.655,0,0,1,3.309,0v24.363a1.655,1.655,0,0,1-1.654,1.654" transform="translate(-351.047 -82.182)" fill="#002f35"/>
    <path id="Path_1044" data-name="Path 1044" d="M137.227,106.076H117.808a2.382,2.382,0,0,1,0-4.764h19.419a2.382,2.382,0,1,1,0,4.764" transform="translate(-74.896 -65.634)" fill="#002f35"/>
    <path id="Path_1045" data-name="Path 1045" d="M49.638,145.6H30.219a2.382,2.382,0,0,1-2.382-2.382,2.41,2.41,0,0,1,2.5-2.382H49.756a2.384,2.384,0,0,1-.118,4.764" transform="translate(-18.034 -91.237)" fill="#002f35"/>
    <path id="Path_1046" data-name="Path 1046" d="M35.537,190.018H16.118c-2.12,0-3.186-1.066-3.186-2.382a2.382,2.382,0,0,1,2.382-2.382H34.733a2.382,2.382,0,0,1,2.382,2.382,2.488,2.488,0,0,1-1.578,2.382" transform="translate(-8.378 -120.063)" fill="#002f35"/>
    <path id="Path_1047" data-name="Path 1047" d="M66.239,274.118H46.82a2.382,2.382,0,0,1,0-4.764H66.239a2.382,2.382,0,0,1,0,4.764" transform="translate(-28.789 -174.568)" fill="#002f35"/>
    <path id="Path_1048" data-name="Path 1048" d="M37.343,238.6H17.924a2.382,2.382,0,1,1,0-4.764H37.343a2.382,2.382,0,1,1,0,4.764" transform="translate(-10.069 -151.546)" fill="#002f35"/>
    <path id="Path_1049" data-name="Path 1049" d="M45.246,104.7h-11.8a2.41,2.41,0,0,1-2.5-2.382,2.382,2.382,0,0,1,2.382-2.382h11.8a2.384,2.384,0,0,1,.118,4.764" transform="translate(-20.049 -64.744)" fill="#002f35"/>
    <path id="Path_1050" data-name="Path 1050" d="M12.132,168.621H2.382A2.382,2.382,0,0,1,0,166.239c0-1.316,1.066-2.382,3.187-2.382h9.75a2.487,2.487,0,0,1,1.578,2.382,2.382,2.382,0,0,1-2.382,2.382" transform="translate(0 -106.195)" fill="#002f35"/>
    <path id="Path_1051" data-name="Path 1051" d="M94.507,103.694a2.382,2.382,0,1,1-2.382-2.382,2.382,2.382,0,0,1,2.382,2.382" transform="translate(-58.139 -65.634)" fill="#002f35"/>
    <path id="Path_1052" data-name="Path 1052" d="M527.938,427.52a41.2,41.2,0,0,0-73.62,16.51l73.62-16.51" transform="translate(-294.938 -266.211)" fill="#002f35"/>
    <path id="Path_1053" data-name="Path 1053" d="M77.731,515.748c-12.752,0-19.444-10.338-14.947-23.09H52.551c-6.49,18.4,3.167,33.323,21.571,33.323s38.584-14.919,45.074-33.323H108.964c-4.5,12.752-18.481,23.09-31.233,23.09" transform="translate(-32.735 -319.305)" fill="#002f35"/>
    <path id="Path_1054" data-name="Path 1054" d="M119.313,504.022a14.146,14.146,0,0,0,13.368-11.364H109.953c-1.107,6.277,3.084,11.364,9.36,11.364" transform="translate(-71.229 -319.294)" fill="#002f35"/>
    <path id="Path_1055" data-name="Path 1055" d="M537.395,499.033a11.364,11.364,0,0,0,8.326-13.747l-22.073,5.42a11.365,11.365,0,0,0,13.747,8.326" transform="translate(-339.852 -314.518)" fill="#002f35"/>
    <path id="Path_1056" data-name="Path 1056" d="M524.843,480.222a18.024,18.024,0,0,1-1,8.532c-3.757,10.652-15.438,19.288-26.09,19.288-10.528,0-16.095-8.439-12.6-18.92l-9.169,2.057c-3.789,14.236,4.2,25.411,18.752,25.411,15.374,0,32.231-12.462,37.653-27.836a27.056,27.056,0,0,0,1.637-10.592l-9.185,2.06" transform="translate(-308.367 -309.913)" fill="#002f35"/>
    <path id="Path_1057" data-name="Path 1057" d="M123.913,105.043H92.262a3.946,3.946,0,0,1,.155,1.044,3.992,3.992,0,0,1-3.992,3.992H50.479a4,4,0,0,1-.695-.07L47.46,116.6h5.9a3.992,3.992,0,0,1,0,7.984H44.645l-2.665,7.558H49.1a3.992,3.992,0,1,1,0,7.984H39.164l-2.981,8.453H48.456a3.992,3.992,0,1,1,0,7.983H33.6c-.077,0-.149-.018-.224-.023l-1.951,5.531H58.319a3.992,3.992,0,0,1,3.992,3.991,3.946,3.946,0,0,1-.192,1.16h39.392l31.548-62.177Z" transform="translate(-20.358 -68.051)" fill="#002f35"/>
    <path id="Path_1058" data-name="Path 1058" d="M519.817,118.347c-.378,4.25-1.825,7.595-3.231,7.47s-2.238-3.672-1.86-7.922,1.826-7.594,3.231-7.469,2.238,3.671,1.86,7.922" transform="translate(-333.887 -71.535)" fill="#002f35"/>
    <path id="Path_1059" data-name="Path 1059" d="M522.306,118.514c-.309,3.485-2.165,6.292-3.5,7.122a1.333,1.333,0,0,1-.786.251c-1.234-.108-1.925-3.643-1.548-7.9s1.685-7.606,2.919-7.5a1.307,1.307,0,0,1,.728.393c1.122,1.013,2.39,3.9,2.219,7.208C522.331,118.234,522.318,118.377,522.306,118.514Z" transform="translate(-335.013 -71.581)" fill="#002f35"/>
    <g id="Group_7" data-name="Group 7" transform="translate(0 11.073)">
      <path id="Path_1083" data-name="Path 1083" d="M6.444,28.757a7.1,7.1,0,0,1-3.4-.774A5.489,5.489,0,0,1,.8,25.781,6.821,6.821,0,0,1,0,22.393a6.973,6.973,0,0,1,.761-3.282,5.783,5.783,0,0,1,2.148-2.3,6.123,6.123,0,0,1,3.255-.847,4.94,4.94,0,0,1,3.622,1.294A6.692,6.692,0,0,1,11.567,20.7a.467.467,0,0,1,.013.133.409.409,0,0,1-.1.3.794.794,0,0,1-.26.167,7.647,7.647,0,0,1-.961.374q-.507.16-.987.347-1.4.52-2.815,1.021T3.656,24.1q-.107.053-.107.133a.218.218,0,0,0,.027.093,3.391,3.391,0,0,0,1.468,1.427,4.411,4.411,0,0,0,2,.467,4.512,4.512,0,0,0,1.568-.267,9.722,9.722,0,0,0,1.434-.667,1.769,1.769,0,0,1,.187-.093.465.465,0,0,1,.187-.04.363.363,0,0,1,.287.114,1.062,1.062,0,0,1,.167.26q.053.094.207.42t.294.653a1.538,1.538,0,0,1,.14.42.355.355,0,0,1-.08.24,1.171,1.171,0,0,1-.187.174,6.939,6.939,0,0,1-2.3.987,10.529,10.529,0,0,1-2.5.334M3.1,22.259l2.695-.934q1.347-.467,2.682-.934a3.945,3.945,0,0,0-.927-1.281,2.075,2.075,0,0,0-1.461-.547,2.563,2.563,0,0,0-1.681.547A3.252,3.252,0,0,0,3.415,20.5a4.924,4.924,0,0,0-.32,1.755" transform="translate(0 -9.732)" fill="#002f35"/>
      <path id="Path_1084" data-name="Path 1084" d="M41.536,0a9.465,9.465,0,0,1,3.575.647,5.551,5.551,0,0,1,2.542,2,6.015,6.015,0,0,1,.94,3.5,7.084,7.084,0,0,1-.667,3.109,5.655,5.655,0,0,1-2.135,2.321.137.137,0,0,0-.093.133,4.018,4.018,0,0,0,.354.627q.353.573.893,1.414t1.108,1.708q.567.867.994,1.534l.547.854c.045.071.089.149.133.233a.583.583,0,0,1,.067.274.276.276,0,0,1-.247.293,1.984,1.984,0,0,1-.407.053H46.486a.558.558,0,0,1-.454-.24,11.91,11.91,0,0,1-.774-1.127q-.36-.594-.734-1.154-.587-.907-1.187-1.808t-1.174-1.821a.164.164,0,0,0-.147-.093H39.628a.142.142,0,0,0-.16.16q0,.921-.007,1.848t-.02,1.848q0,.387.02.941a5.163,5.163,0,0,1-.034.914.882.882,0,0,1-.14.4.488.488,0,0,1-.407.133H36.573a.489.489,0,0,1-.547-.56q0-.721.027-1.448t.04-1.461q.04-3.042.04-6.1,0-2.895-.04-5.817-.014-.694-.034-1.381T36.039.561A.49.49,0,0,1,36.586,0ZM39.468,9.259h2.695a2.837,2.837,0,0,0,2.975-2.988,3.142,3.142,0,0,0-.774-2.215,2.791,2.791,0,0,0-2.161-.84H39.455q.013,1.508.013,3.022Z" transform="translate(-21.964 0)" fill="#002f35"/>
      <path id="Path_1085" data-name="Path 1085" d="M81.776,28.757a7.1,7.1,0,0,1-3.4-.774,5.489,5.489,0,0,1-2.248-2.2,6.821,6.821,0,0,1-.8-3.388,6.973,6.973,0,0,1,.761-3.282,5.783,5.783,0,0,1,2.148-2.3,6.123,6.123,0,0,1,3.255-.847,4.94,4.94,0,0,1,3.622,1.294A6.692,6.692,0,0,1,86.9,20.7a.466.466,0,0,1,.013.133.409.409,0,0,1-.1.3.794.794,0,0,1-.26.167,7.648,7.648,0,0,1-.961.374q-.507.16-.987.347-1.4.52-2.815,1.021t-2.8,1.061q-.107.053-.107.133a.218.218,0,0,0,.027.093,3.391,3.391,0,0,0,1.468,1.427,4.411,4.411,0,0,0,2,.467,4.512,4.512,0,0,0,1.568-.267,9.722,9.722,0,0,0,1.434-.667,1.769,1.769,0,0,1,.187-.093.465.465,0,0,1,.187-.04.363.363,0,0,1,.287.114,1.062,1.062,0,0,1,.167.26q.053.094.207.42t.294.653a1.539,1.539,0,0,1,.14.42.355.355,0,0,1-.08.24,1.171,1.171,0,0,1-.187.174,6.939,6.939,0,0,1-2.3.987,10.53,10.53,0,0,1-2.5.334m-3.349-6.5,2.695-.934q1.347-.467,2.682-.934a3.945,3.945,0,0,0-.927-1.281,2.075,2.075,0,0,0-1.461-.547,2.563,2.563,0,0,0-1.681.547,3.252,3.252,0,0,0-.988,1.394,4.924,4.924,0,0,0-.32,1.755" transform="translate(-45.928 -9.732)" fill="#002f35"/>
      <path id="Path_1086" data-name="Path 1086" d="M111.95,28.929a4.936,4.936,0,0,1-1.587-.28,3.411,3.411,0,0,1-1.374-.84.485.485,0,0,1-.16-.347,2.311,2.311,0,0,1,.087-.407q.087-.327.194-.674c.071-.231.116-.383.133-.454a1.49,1.49,0,0,1,.147-.314.319.319,0,0,1,.293-.153,1.78,1.78,0,0,1,.787.334,2.265,2.265,0,0,0,1.228.333,1.056,1.056,0,0,0,1.214-1.174,1.129,1.129,0,0,0-.487-1.054q-.488-.293-1.048-.587a4.661,4.661,0,0,1-1.708-1.467,3.769,3.769,0,0,1-.587-2.162,3.366,3.366,0,0,1,.968-2.561,3.588,3.588,0,0,1,2.581-.92,5.481,5.481,0,0,1,.621.053,7.567,7.567,0,0,1,.874.167,2.807,2.807,0,0,1,.774.307.548.548,0,0,1,.32.46,1.673,1.673,0,0,1-.107.553q-.107.3-.174.554a1.61,1.61,0,0,1-.147.333.34.34,0,0,1-.32.16,1.444,1.444,0,0,1-.6-.147,1.65,1.65,0,0,0-.694-.147,1.417,1.417,0,0,0-.894.3,1.009,1.009,0,0,0-.387.847,1.252,1.252,0,0,0,.38.974,3.815,3.815,0,0,0,.941.614,8.128,8.128,0,0,1,1.121.654,3.1,3.1,0,0,1,.941,1.074,3.923,3.923,0,0,1,.38,1.888,4.476,4.476,0,0,1-.954,2.9,3.327,3.327,0,0,1-2.755,1.187" transform="translate(-66.349 -9.878)" fill="#002f35"/>
      <path id="Path_1087" data-name="Path 1087" d="M132.031,8.459q0-1.147-.013-2.288T132,3.9a.483.483,0,0,1,.547-.547h2.094a.484.484,0,0,1,.547.547q0,1.134-.007,2.274t-.007,2.288q0,.16.174.16h2.095a.483.483,0,0,1,.547.547q0,.413-.006.834t-.007.847a.484.484,0,0,1-.547.547h-2.081c-.116,0-.174.053-.174.16q0,2.161.014,4.322t.013,4.323a.483.483,0,0,1-.547.547h-2.121a.483.483,0,0,1-.547-.547q0-2.161.02-4.323t.02-4.322q0-.2-.28-.194c-.187,0-.4.02-.64.047a1.491,1.491,0,0,1-.641-.053q-.28-.093-.28-.507V9.166a.484.484,0,0,1,.547-.547h1.121q.173,0,.173-.16" transform="translate(-79.373 -2.042)" fill="#002f35"/>
      <path id="Path_1088" data-name="Path 1088" d="M157.551,16.71a.485.485,0,0,1,.547.494l.134,1.521c0,.009.009.073.027.194s.049.18.093.18.091-.049.14-.147l.087-.173a4.751,4.751,0,0,1,1.334-1.614,3.235,3.235,0,0,1,1.988-.587,6.909,6.909,0,0,1,.714.047.417.417,0,0,1,.433.447,3.8,3.8,0,0,1-.08.627q-.08.427-.18.861t-.153.66a.8.8,0,0,1-.167.354.491.491,0,0,1-.38.126,1.678,1.678,0,0,1-.26-.02,1.766,1.766,0,0,0-.273-.02,2.528,2.528,0,0,0-1.774.66A4.134,4.134,0,0,0,158.7,21.94a5.373,5.373,0,0,0-.36,1.895v4.429a.484.484,0,0,1-.547.547h-2.068a.49.49,0,0,1-.547-.561q0-2.067.02-4.129t.02-4.116V17.257a.483.483,0,0,1,.547-.547Z" transform="translate(-94.606 -10.107)" fill="#002f35"/>
      <path id="Path_1089" data-name="Path 1089" d="M177.222,22.488a6.8,6.8,0,0,1,.794-3.309,5.94,5.94,0,0,1,2.222-2.3,6.331,6.331,0,0,1,3.3-.847,6.076,6.076,0,0,1,3.215.834,5.8,5.8,0,0,1,2.142,2.275,6.794,6.794,0,0,1,.767,3.242,6.914,6.914,0,0,1-.76,3.289,5.609,5.609,0,0,1-2.141,2.248,6.338,6.338,0,0,1-3.276.814,6.672,6.672,0,0,1-3.289-.781A5.517,5.517,0,0,1,178,25.77a6.631,6.631,0,0,1-.781-3.282m6.244-3.762a2.639,2.639,0,0,0-1.694.54,3.369,3.369,0,0,0-1.027,1.381,4.574,4.574,0,0,0-.347,1.761,3.955,3.955,0,0,0,.367,1.667,3.334,3.334,0,0,0,1.048,1.308,2.625,2.625,0,0,0,1.614.507,2.7,2.7,0,0,0,1.688-.513,3.172,3.172,0,0,0,1.014-1.328,4.538,4.538,0,0,0,0-3.449,3.286,3.286,0,0,0-1.007-1.347,2.585,2.585,0,0,0-1.654-.527" transform="translate(-108.047 -9.774)" fill="#002f35"/>
    </g>
  </g>
</svg>
