<svg xmlns="http://www.w3.org/2000/svg" width="24" height="24" viewBox="0 0 24 24">
  <g id="Total_Earning" data-name="Total Earning" transform="translate(-26 -216)">
    <rect id="Rectangle_18107" data-name="Rectangle 18107" width="24" height="24" transform="translate(26 216)" fill="none"/>
    <path id="Path_16704" data-name="Path 16704" d="M5.268,9.371a1.059,1.059,0,0,1,1.066,1.053A7.489,7.489,0,0,1,10.95,12h2.313a4.811,4.811,0,0,1,3.575,1.579h3.353a5.335,5.335,0,0,1,4.814,3A14.084,14.084,0,0,1,13.8,22,15.564,15.564,0,0,1,6.27,20.258a1.063,1.063,0,0,1-1,.693h-3.2A1.059,1.059,0,0,1,1,19.9V10.424A1.059,1.059,0,0,1,2.071,9.371Zm1.067,3.158v5.286l.048.034A12.791,12.791,0,0,0,13.8,19.9,12.055,12.055,0,0,0,22.147,16.6l.142-.141-.127-.106a3.215,3.215,0,0,0-1.752-.663l-.219-.007H17.941a4.694,4.694,0,0,1,.119,1.053v1.053H8.466V15.687H15.7l-.037-.083a2.666,2.666,0,0,0-2.229-1.49l-.175-.006H10.14A5.347,5.347,0,0,0,6.335,12.529ZM4.2,11.477H3.137v7.368H4.2ZM19.125,5.161a3.158,3.158,0,1,1-3.2,3.158A3.178,3.178,0,0,1,19.125,5.161Zm0,2.105a1.053,1.053,0,1,0,1.066,1.053A1.059,1.059,0,0,0,19.125,7.266ZM11.664,2a3.158,3.158,0,1,1-3.2,3.158A3.178,3.178,0,0,1,11.664,2Zm0,2.105A1.053,1.053,0,1,0,12.73,5.161,1.059,1.059,0,0,0,11.664,4.108Z" transform="translate(24.995 215.997)" fill="#fff"/>
  </g>
</svg>
