<svg xmlns="http://www.w3.org/2000/svg" width="24" height="24" viewBox="0 0 24 24">
  <g id="wallet_active" transform="translate(-903 -3458)">
    <g id="Group_9566" data-name="Group 9566" transform="translate(0 -8)">
      <rect id="Rectangle_273" data-name="Rectangle 273" width="24" height="24" transform="translate(903 3466)" fill="none"/>
      <path id="Path_16714" data-name="Path 16714" d="M94.422,109.832a2.334,2.334,0,0,0-1.4-2.2.308.308,0,0,1-.2-.321c.007-.765.006-1.528,0-2.292a2.46,2.46,0,0,0-.095-.669A14.1,14.1,0,0,0,75.51,118.1q0,.222.007.442a14.256,14.256,0,0,0,.149,1.664q2.981,0,5.961,0H82.1c2.736,0,5.474,0,8.209,0a2.419,2.419,0,0,0,2.515-2.515c0-.722.005-1.445,0-2.167a.344.344,0,0,1,.224-.36,2.326,2.326,0,0,0,1.375-2.193q.01-1.568,0-3.138" transform="translate(832.573 3369.396)" fill="#f0bb62"/>
      <path id="Path_16715" data-name="Path 16715" d="M24,12.833a2.334,2.334,0,0,0-1.4-2.2.308.308,0,0,1-.2-.321c.007-.765.006-1.528,0-2.292a2.461,2.461,0,0,0-.095-.669,2.406,2.406,0,0,0-1.7-1.658,3.452,3.452,0,0,0-1.089-.081c-.236.011-.317-.06-.314-.306.013-.963.007-1.926,0-2.889a2.531,2.531,0,0,0-.032-.446A2.452,2.452,0,0,0,15.79.195C11.375,1.983,6.945,3.735,2.521,5.5a2.7,2.7,0,0,1-.547.159A2.384,2.384,0,0,0,0,7.942Q0,14.4,0,20.868a2.018,2.018,0,0,0,.195.868,2.414,2.414,0,0,0,2.347,1.47q1.349,0,2.7,0,2.981,0,5.961,0h.475c2.736,0,5.474,0,8.209,0A2.419,2.419,0,0,0,22.4,20.691c0-.722.005-1.445,0-2.167a.344.344,0,0,1,.224-.36A2.326,2.326,0,0,0,24,15.971q.01-1.568,0-3.138M11.7,3.611q2.325-.929,4.652-1.858c.71-.283,1.215.051,1.218.811,0,.922,0,1.842,0,2.763,0,.2-.046.279-.262.279Q12.1,5.6,6.889,5.6c-.024,0-.047,0-.137-.014L11.7,3.611M20.767,20.63a.811.811,0,0,1-.923.916H2.547a.805.805,0,0,1-.913-.9q0-6.24,0-12.48a.8.8,0,0,1,.905-.9H19.811c.67,0,.955.281.956.952,0,.622-.011,1.245.005,1.867.007.248-.08.31-.314.3-.666-.013-1.332-.007-2,0a2.417,2.417,0,0,0-2.485,2.489c0,1.013.034,2.028-.009,3.039a2.453,2.453,0,0,0,2.5,2.511c.666,0,1.332.007,2,0,.218,0,.31.049.3.291-.015.639,0,1.278-.005,1.917m1.591-4.655a.768.768,0,0,1-.843.787q-1.534,0-3.067,0a.769.769,0,0,1-.835-.8q-.021-1.554,0-3.11a.768.768,0,0,1,.845-.806c.515,0,1.03,0,1.545,0s1.014,0,1.521,0a.764.764,0,0,1,.835.791q.022,1.567,0,3.135" transform="translate(903 3466.395)" fill="#313131"/>
    </g>
  </g>
</svg>
